<?xml version="1.0" encoding="UTF-8" standalone="no"?>
<svg
   xmlns:dc="http://purl.org/dc/elements/1.1/"
   xmlns:cc="http://creativecommons.org/ns#"
   xmlns:rdf="http://www.w3.org/1999/02/22-rdf-syntax-ns#"
   xmlns:svg="http://www.w3.org/2000/svg"
   xmlns="http://www.w3.org/2000/svg"
   xmlns:sodipodi="http://sodipodi.sourceforge.net/DTD/sodipodi-0.dtd"
   xmlns:inkscape="http://www.inkscape.org/namespaces/inkscape"
   height="16"
   width="16"
   version="1.0"
   id="svg2"
   inkscape:version="0.91 r13725"
   sodipodi:docname="more.svg">
  <metadata
     id="metadata12">
    <rdf:RDF>
      <cc:Work
         rdf:about="">
        <dc:format>image/svg+xml</dc:format>
        <dc:type
           rdf:resource="http://purl.org/dc/dcmitype/StillImage" />
      </cc:Work>
    </rdf:RDF>
  </metadata>
  <defs
     id="defs10" />
  <sodipodi:namedview
     pagecolor="#ffffff"
     bordercolor="#666666"
     borderopacity="1"
     objecttolerance="10"
     gridtolerance="10"
     guidetolerance="10"
     inkscape:pageopacity="0"
     inkscape:pageshadow="2"
     inkscape:window-width="958"
     inkscape:window-height="1180"
     id="namedview8"
     showgrid="false"
     inkscape:zoom="166.8772"
     inkscape:cx="12.612814"
     inkscape:cy="7.8127314"
     inkscape:window-x="0"
     inkscape:window-y="18"
     inkscape:window-maximized="0"
     inkscape:current-layer="svg2" />
  <rect
     style="color:#000000"
     fill-opacity="0"
     height="97.986"
     width="163.31"
     y="-32.993"
     x="-62.897"
     id="rect4" />
  <path
     d="m3 6c-1.1046 0-2 0.8954-2 2s0.8954 2 2 2 2-0.8954 2-2-0.8954-2-2-2zm5 0c-1.1046 0-2 0.8954-2 2s0.8954 2 2 2 2-0.8954 2-2-0.8954-2-2-2zm5 0c-1.105 0-2 0.8954-2 2s0.895 2 2 2 2-0.8954 2-2-0.895-2-2-2z"
     fill-rule="evenodd"
     id="path6" />
  <path
     style="fill:#f9f9f9"
     d="M 2.4490966,9.8820683 C 1.5884665,9.6129654 1.0596955,8.9044927 1.0545288,8.0135593 1.0447766,6.3319439 3.0243034,5.4207442 4.2820767,6.5278806 4.9640355,7.1281646 5.1393195,8.058786 4.7261565,8.8855982 4.2993796,9.7396545 3.3384727,10.160159 2.4490966,9.8820683 Z"
     id="path3340"
     inkscape:connector-curvature="0" />
  <path
     style="fill:#f9f9f9"
     d="M 7.706946,9.972689 C 7.2569545,9.8992985 6.8742083,9.7010632 6.5679345,9.3827616 6.0811384,8.8768486 5.8956182,8.1709615 6.0715202,7.4939515 6.2377633,6.8541167 6.7451748,6.3144276 7.3748108,6.1077559 c 0.207769,-0.068198 0.3171571,-0.085928 0.5726898,-0.092824 0.2024485,-0.00546 0.253586,-0.00291 0.3823571,0.019064 C 9.410288,6.2183949 10.143022,7.2406965 9.9672021,8.3183987 9.8337074,9.1366647 9.2177577,9.778485 8.3969329,9.9546208 8.2407335,9.9881387 7.8624179,9.9980454 7.706946,9.972689 Z"
     id="path3348"
     inkscape:connector-curvature="0" />
  <path
     style="fill:#f9f9f9"
     d="M 2.8376928,9.9918279 C 2.545264,9.9645735 2.2692458,9.8811763 2.033439,9.7488274 l -0.043204,-0.024249 0,-0.021092 0,-0.021092 0.03072,0.017287 c 0.2592855,0.1459065 0.540007,0.2351963 0.8273305,0.2631509 0.074391,0.00724 0.2536007,0.00608 0.3347458,-0.00217 C 3.6200486,9.9162628 4.0142459,9.732935 4.3332749,9.4257271 4.6004415,9.1684598 4.7972255,8.8222332 4.8904639,8.445395 4.9281834,8.2929455 4.9435569,8.1745989 4.9466846,8.0126047 4.9490903,7.8880015 4.9451578,7.8142562 4.9304801,7.7087226 4.8626331,7.2208985 4.6072074,6.7822653 4.2026994,6.4589313 3.9181125,6.2314535 3.5772413,6.0908559 3.2126928,6.0505878 3.1436552,6.0429619 2.8816945,6.0429789 2.818625,6.0506133 2.5197301,6.0867938 2.2580133,6.1727072 2.0209555,6.3124632 l -0.03072,0.018111 0,-0.027149 0,-0.027149 0.028602,-0.016639 c 0.015731,-0.00915 0.05738,-0.031025 0.092553,-0.048608 0.4692055,-0.2345507 1.0210774,-0.2732414 1.5207941,-0.1066202 0.4014564,0.1338582 0.7579555,0.3990821 1.0002495,0.7441535 0.083705,0.1192115 0.1756265,0.2880979 0.224521,0.41251 0.067391,0.1714771 0.1108211,0.3508262 0.1318503,0.5444915 0.00987,0.090913 0.00987,0.2989856 -8.5e-6,0.3898306 C 4.9475065,8.5752225 4.8179624,8.9059805 4.5939201,9.2036111 4.4883928,9.3437997 4.3470089,9.4854825 4.2057256,9.5926262 3.9199043,9.8093818 3.5936115,9.9399762 3.2232856,9.985835 3.1570269,9.99404 2.9036764,9.9979776 2.8376924,9.9918279 l 4e-7,0 z"
     id="path3350"
     inkscape:connector-curvature="0" />
  <path
     style="fill:#f9f9f9"
     d="M 1.9292643,9.6869309 C 1.6367534,9.4985088 1.4020645,9.2457456 1.2391189,8.9436348 0.90938973,8.3322973 0.92541398,7.5796071 1.2808732,6.9823528 1.447581,6.702245 1.6838426,6.4627885 1.9599847,6.2940581 l 0.028602,-0.017476 0,0.027385 0,0.027385 -0.032199,0.020238 C 1.5505407,6.6066877 1.2492198,7.0102803 1.1240886,7.4663817 1.009615,7.8836363 1.0339211,8.3535624 1.1905366,8.7510666 1.337899,9.1250853 1.6016459,9.441209 1.9429777,9.6529326 l 0.045493,0.028219 5.76e-5,0.020127 c 3.39e-5,0.01107 -0.00137,0.020047 -0.00312,0.019949 -0.00175,-9.79e-5 -0.027013,-0.015531 -0.056144,-0.034296 l 2e-7,0 z"
     id="path3352"
     inkscape:connector-curvature="0" />
  <path
     style="fill:#f9f9f9"
     d="M 12.848317,9.9914614 C 12.436784,9.960055 12.044143,9.801099 11.724736,9.5365923 11.65422,9.4781963 11.523627,9.3477139 11.465023,9.2770983 11.257914,9.0275395 11.108351,8.7182418 11.045204,8.4089097 c -0.0326,-0.1596876 -0.03649,-0.2038809 -0.03629,-0.4122003 1.96e-4,-0.2056858 0.0065,-0.2737138 0.03923,-0.4224664 0.06546,-0.297639 0.202614,-0.5842215 0.39432,-0.8239592 0.0648,-0.081039 0.194768,-0.2127171 0.282273,-0.2859937 0.243632,-0.2040173 0.564183,-0.358244 0.874895,-0.4209384 0.424334,-0.085621 0.864431,-0.032916 1.250397,0.1497446 0.09265,0.043849 0.167061,0.085657 0.252205,0.1417103 l 0.06742,0.044381 0,1.6200802 0,1.6200801 -0.05243,0.035694 C 13.75077,9.9044944 13.29436,10.025501 12.848317,9.9914614 Z"
     id="path3354"
     inkscape:connector-curvature="0" />
  <path
     style="fill:#f9f9f9"
     d="m 14.169648,8.0002049 c 0,-0.8885026 0.0017,-1.6154593 0.0038,-1.6154593 0.01231,0 0.162554,0.1296101 0.239185,0.2063378 0.166197,0.1664045 0.280098,0.3262102 0.382988,0.5373401 0.09676,0.1985461 0.157198,0.4008189 0.186929,0.6255924 0.01294,0.097793 0.01489,0.3703579 0.0033,0.4644134 -0.04011,0.3263675 -0.146103,0.6186696 -0.318793,0.8791916 -0.08317,0.1254638 -0.149589,0.206191 -0.260253,0.3162982 -0.08109,0.080679 -0.210722,0.1925731 -0.231418,0.1997477 -0.0037,0.00128 -0.0058,-0.5822188 -0.0058,-1.6134619 z"
     id="path3356"
     inkscape:connector-curvature="0" />
</svg>
