<?xml version="1.0" encoding="UTF-8" standalone="no"?>
<svg
   xmlns:dc="http://purl.org/dc/elements/1.1/"
   xmlns:cc="http://creativecommons.org/ns#"
   xmlns:rdf="http://www.w3.org/1999/02/22-rdf-syntax-ns#"
   xmlns:svg="http://www.w3.org/2000/svg"
   xmlns="http://www.w3.org/2000/svg"
   xmlns:sodipodi="http://sodipodi.sourceforge.net/DTD/sodipodi-0.dtd"
   xmlns:inkscape="http://www.inkscape.org/namespaces/inkscape"
   height="16"
   width="16"
   version="1.0"
   id="svg2"
   inkscape:version="0.91 r13725"
   sodipodi:docname="settings.svg">
  <metadata
     id="metadata12">
    <rdf:RDF>
      <cc:Work
         rdf:about="">
        <dc:format>image/svg+xml</dc:format>
        <dc:type
           rdf:resource="http://purl.org/dc/dcmitype/StillImage" />
      </cc:Work>
    </rdf:RDF>
  </metadata>
  <defs
     id="defs10" />
  <sodipodi:namedview
     pagecolor="#ffffff"
     bordercolor="#666666"
     borderopacity="1"
     objecttolerance="10"
     gridtolerance="10"
     guidetolerance="10"
     inkscape:pageopacity="0"
     inkscape:pageshadow="2"
     inkscape:window-width="958"
     inkscape:window-height="1180"
     id="namedview8"
     showgrid="false"
     inkscape:zoom="256"
     inkscape:cx="11.353612"
     inkscape:cy="12.960637"
     inkscape:window-x="0"
     inkscape:window-y="18"
     inkscape:window-maximized="0"
     inkscape:current-layer="svg2" />
  <g
     opacity=".5"
     transform="translate(0 -.056)"
     id="g4">
    <path
       d="m6.9375 0.056c-0.2484 0-0.4375 0.18908-0.4375 0.4375v1.25c-0.5539 0.1422-1.0512 0.3719-1.5312 0.6563l-0.9063-0.9063c-0.17566-0.17566-0.44934-0.17566-0.625 0l-1.5 1.5c-0.17566 0.17566-0.17566 0.44934 0 0.625l0.9063 0.9063c-0.2844 0.48-0.5141 0.9773-0.6563 1.5312h-1.25c-0.24842 0-0.4375 0.1891-0.4375 0.4375v2.125c1e-8 0.24842 0.18908 0.4375 0.4375 0.4375h1.25c0.1422 0.5539 0.37188 1.0512 0.65625 1.5312l-0.9063 0.907c-0.17566 0.17566-0.17566 0.44934 0 0.625l1.5 1.5c0.17566 0.17566 0.44934 0.17566 0.625 0l0.9063-0.907c0.48 0.285 0.9773 0.514 1.5312 0.656v1.25c1e-7 0.24842 0.18908 0.4375 0.4375 0.4375h2.125c0.2484 0 0.4375-0.189 0.4375-0.438v-1.25c0.5539-0.1422 1.0512-0.37188 1.5312-0.65625l0.90625 0.90625c0.17566 0.17566 0.44934 0.17566 0.625 0l1.5-1.5c0.17566-0.17566 0.17566-0.44934 0-0.625l-0.906-0.906c0.285-0.48 0.514-0.9771 0.656-1.531h1.25c0.249 0 0.438-0.1891 0.438-0.4375v-2.125c0-0.2484-0.189-0.4375-0.438-0.4375h-1.25c-0.142-0.5539-0.371-1.0512-0.656-1.5312l0.906-0.9063c0.17566-0.17566 0.17566-0.44934 0-0.625l-1.5-1.5c-0.17566-0.17566-0.44934-0.17566-0.625 0l-0.906 0.9063c-0.48-0.2844-0.977-0.5141-1.531-0.6563v-1.25c0-0.24842-0.1891-0.4375-0.4375-0.4375zm1.0625 4.1573c1.8451 0 3.3427 1.4975 3.3427 3.3427 0 1.8451-1.4975 3.3427-3.3427 3.3427-1.8451 0-3.3427-1.4979-3.3427-3.343s1.4976-3.3427 3.3427-3.3427z"
       display="block"
       id="path6" />
  </g>
  <path
     style="fill:#f9f9f9"
     d="m 6.7133902,14.891071 c -0.1391566,-0.09747 -0.1506783,-0.159044 -0.1506783,-0.805258 0,-0.779671 0.00846,-0.763839 -0.5084746,-0.951867 C 5.8677966,13.066129 5.5446924,12.925603 5.336228,12.821664 L 4.9572017,12.632685 4.4565688,13.136681 C 3.7423092,13.85574 3.7543015,13.858209 2.6780064,12.770445 2.2044249,12.291817 1.8169492,11.862693 1.8169492,11.816835 c 0,-0.16543 0.1586708,-0.38756 0.5954084,-0.833537 L 2.8569431,10.529306 2.5829429,9.9324502 C 2.4322428,9.604179 2.2891884,9.2516949 2.2650441,9.1491525 l -0.043899,-0.1864406 -0.7339634,0 c -1.00564177,0 -0.95836854,0.072481 -0.95836854,-1.4694068 0,-1.5164058 -0.0468833,-1.4458475 0.96070864,-1.4458475 l 0.7127439,0 0.085251,-0.2881356 C 2.3344052,5.6008475 2.4765224,5.2594582 2.6033332,5.0006792 2.730144,4.7419003 2.8338983,4.500023 2.8338983,4.4631742 2.8338983,4.4263254 2.6050847,4.1610487 2.3254237,3.8736704 2.0457627,3.5862921 1.8169492,3.2968927 1.8169492,3.2305607 c 0,-0.066332 0.3874757,-0.5122082 0.8610572,-0.9908363 1.0762802,-1.0877493 1.0643132,-1.0852845 1.7784892,-0.36631 l 0.5005597,0.5039228 0.446896,-0.223372 C 5.6497442,2.0311105 5.9728814,1.8918947 6.1220339,1.8445967 c 0.4344083,-0.137756 0.440678,-0.1508486 0.440678,-0.92024016 0,-0.94222146 -0.050811,-0.91079722 1.4727125,-0.91079722 1.4874061,0 1.4425417,-0.03021145 1.4425417,0.97139851 l 0,0.70021207 0.5593219,0.2140224 C 10.344915,2.0169045 10.688136,2.1707107 10.8,2.2409837 l 0.20339,0.1277692 0.517638,-0.4996307 c 0.726352,-0.7010841 0.702031,-0.7061053 1.771476,0.3657187 0.615801,0.6171715 0.863428,0.9110605 0.863428,1.0247348 0,0.106832 -0.169192,0.3332467 -0.513133,0.686678 l -0.513133,0.5272928 0.21777,0.4310233 c 0.119773,0.2370629 0.269587,0.5835658 0.332919,0.7700065 l 0.11515,0.338983 0.759166,0.033898 c 0.573734,0.025618 0.774816,0.058738 0.823243,0.1355932 0.08355,0.1326015 0.08355,2.5114665 0,2.6440678 -0.04839,0.076793 -0.249147,0.1099953 -0.819868,0.1355933 l -0.75579,0.033898 -0.153407,0.4087396 c -0.08437,0.2248068 -0.236285,0.5722895 -0.337578,0.7721842 l -0.184172,0.363444 0.514417,0.517452 c 0.364677,0.366828 0.514416,0.566636 0.514416,0.686421 0,0.240136 -1.657368,1.895827 -1.897748,1.895827 -0.117389,0 -0.320839,-0.152888 -0.684377,-0.514294 l -0.517328,-0.514295 -0.433324,0.218931 c -0.238329,0.120413 -0.585867,0.270797 -0.7723075,0.334189 l -0.3389831,0.115257 -0.019211,0.719337 c -0.026956,1.009339 -0.00809,0.996807 -1.5002705,0.996807 -0.9114862,0 -1.1572704,-0.02028 -1.2789929,-0.105539 z M 8.8310814,10.757207 C 10.04228,10.44173 11.045918,9.387642 11.301351,8.1627647 11.563603,6.9051797 11.058919,5.6038492 9.9994502,4.8058117 8.9764515,4.0352445 7.5431647,3.9296868 6.3982959,4.5405965 5.6681838,4.9301892 4.9539007,5.834306 4.73553,6.6452728 4.6104869,7.1096475 4.6390748,7.986362 4.7957816,8.4930258 5.3230447,10.197771 7.1161734,11.203884 8.8310814,10.757207 Z"
     id="path3340"
     inkscape:connector-curvature="0" />
  <path
     style="fill:#f9f9f9"
     d="m 12.12069,13.667228 c -0.0303,-0.01037 -0.07415,-0.02985 -0.09746,-0.0433 -0.02775,-0.01601 -0.206315,-0.187912 -0.517409,-0.498101 l -0.475037,-0.473654 -0.135133,0.07691 c -0.387019,0.220284 -0.811404,0.40654 -1.1762927,0.516258 -0.2006096,0.06032 -0.2003653,0.06026 -0.2003653,0.0475 0,-0.0067 0.078235,-0.03752 0.2025431,-0.07975 0.3470409,-0.117896 0.5733089,-0.215372 1.0297529,-0.443613 l 0.30433,-0.152178 0.263467,0.261727 c 0.54129,0.537715 0.689551,0.667778 0.83943,0.736395 0.07905,0.03619 0.105852,0.03609 0.178271,-6.7e-4 0.16681,-0.08467 0.495754,-0.369104 0.945901,-0.817914 0.372444,-0.371337 0.59429,-0.615135 0.750263,-0.824505 0.13492,-0.181107 0.147914,-0.229395 0.09212,-0.342297 -0.06909,-0.139797 -0.200345,-0.290169 -0.653199,-0.748346 l -0.339498,-0.343488 0.132317,-0.262712 c 0.181789,-0.3609364 0.288037,-0.6043316 0.438819,-1.0052572 0.04534,-0.1205584 0.08375,-0.2152948 0.08535,-0.2105254 0.0036,0.010725 -0.06623,0.2432211 -0.109829,0.3656504 -0.112444,0.3157794 -0.268055,0.6521692 -0.447754,0.9679282 -0.04218,0.07411 -0.07668,0.135455 -0.07668,0.136323 0,8.67e-4 0.209088,0.211016 0.464641,0.466998 0.259921,0.260357 0.478484,0.48627 0.496061,0.512742 0.04646,0.06998 0.06608,0.128508 0.07106,0.212063 0.0051,0.08475 -0.0055,0.139809 -0.0422,0.219332 -0.02367,0.05135 -0.07926,0.109078 -0.81892,0.85053 -0.511524,0.512762 -0.811376,0.807197 -0.843759,0.828514 -0.103067,0.06785 -0.246144,0.08666 -0.360781,0.04743 z"
     id="path3342"
     inkscape:connector-curvature="0" />
  <path
     style="fill:#f9f9f9"
     d="m 8.7656423,14.991607 c 0.5798826,-0.03247 0.6902069,-0.132597 0.7190108,-0.65255 0.00603,-0.108771 0.0064,-0.104387 0.00753,0.08898 0.00129,0.22004 -0.00349,0.255772 -0.04527,0.338341 -0.048537,0.09593 -0.142541,0.175077 -0.2486791,0.209372 -0.051614,0.01668 -0.077387,0.0184 -0.3063553,0.0205 -0.2058029,0.0019 -0.2281196,0.0011 -0.1262341,-0.0046 z"
     id="path3344"
     inkscape:connector-curvature="0" />
  <path
     style="fill:#f9f9f9"
     d="M 6.8834018,14.991328 C 6.822546,14.984126 6.7588323,14.962264 6.7025142,14.929259 6.6512987,14.899245 6.57583,14.815213 6.5488276,14.758135 6.5025948,14.660407 6.501741,14.6459 6.5041072,13.998223 c 0.00212,-0.57896 0.00259,-0.594304 0.016863,-0.548996 0.028183,0.08944 0.032947,0.168638 0.040275,0.669491 0.0078,0.533157 0.012342,0.593774 0.050011,0.667612 0.02255,0.0442 0.075022,0.09507 0.1275761,0.12367 0.082714,0.04502 0.241718,0.06962 0.5236227,0.08101 l 0.1590823,0.0064 -0.2415254,2.03e-4 c -0.132839,1.11e-4 -0.2663136,-0.0027 -0.2966102,-0.0063 z"
     id="path3346"
     inkscape:connector-curvature="0" />
  <path
     style="fill:#f9f9f9"
     d="M 6.1673001,13.208652 C 5.8020862,13.086856 5.4760658,12.940424 5.1137476,12.73545 c -0.05742,-0.03248 -0.1024917,-0.06097 -0.1001596,-0.0633 0.00233,-0.0023 0.1255833,0.05487 0.2738915,0.127118 0.3682616,0.179397 0.5008858,0.237408 0.8077867,0.35333 0.1817205,0.06864 0.2927791,0.116849 0.2711864,0.11772 -0.00699,2.82e-4 -0.09661,-0.02747 -0.1991525,-0.06166 z"
     id="path3348"
     inkscape:connector-curvature="0" />
  <path
     style="fill:#f9f9f9"
     d="m 3.6856143,13.685324 c -0.037374,-0.0045 -0.078245,-0.01799 -0.1271186,-0.04186 l -0.072034,-0.03519 -0.79771,-0.797741 c -0.7781006,-0.778131 -0.7984508,-0.799304 -0.8278435,-0.8613 -0.016573,-0.03496 -0.032427,-0.07309 -0.035231,-0.08475 -0.00461,-0.01914 -0.00282,-0.01835 0.018521,0.0082 0.1292776,0.160663 0.2727785,0.319545 0.5705133,0.631663 0.2699445,0.282985 0.7798894,0.789005 0.8937838,0.886904 0.3116221,0.267858 0.4712608,0.308283 0.6822034,0.172752 0.1000528,-0.06428 0.2035643,-0.160295 0.5881823,-0.545567 l 0.3805552,-0.381202 0.028343,0.01352 c 0.015589,0.0074 0.028343,0.01672 0.028343,0.02064 0,0.0039 -0.010756,0.0016 -0.023903,-0.0052 l -0.023903,-0.01236 -0.457029,0.457688 c -0.2513661,0.251729 -0.4809934,0.474994 -0.5102832,0.496144 -0.090739,0.06552 -0.1979937,0.09196 -0.31539,0.07774 z"
     id="path3350"
     inkscape:connector-curvature="0" />
  <path
     style="fill:#f9f9f9"
     d="m 1.8128463,11.727662 c -1.512e-4,-0.06383 0.026152,-0.145564 0.066615,-0.207013 0.033584,-0.051 0.3654755,-0.388258 0.3654755,-0.371383 0,0.0051 -0.00819,0.01646 -0.018208,0.02534 -0.031775,0.02817 -0.1877537,0.208425 -0.2414577,0.279034 -0.07649,0.100567 -0.1217583,0.178023 -0.1484824,0.254059 l -0.023828,0.0678 -1.134e-4,-0.04784 z"
     id="path3352"
     inkscape:connector-curvature="0" />
  <path
     style="fill:#f9f9f9"
     d="M 2.7634076,10.384246 C 2.5238358,9.961113 2.3131794,9.4615432 2.2111827,9.0746503 L 2.1917456,9.0009215 1.5255444,8.9981904 C 0.86398278,8.9954783 0.85895523,8.9953287 0.80364711,8.9767053 0.66697358,8.9306844 0.56516403,8.8284608 0.52429335,8.6962152 0.50809826,8.6438126 0.50764821,8.6114715 0.50764821,7.500074 c 0,-1.1113976 4.5005e-4,-1.1437387 0.0166451,-1.1961412 0.0408707,-0.1322456 0.14268023,-0.2344692 0.27935376,-0.2804901 0.0553081,-0.018623 0.0603357,-0.018773 0.72189729,-0.021485 l 0.6662012,-0.00273 0.019437,-0.073729 C 2.2891055,5.6299216 2.4324281,5.2606193 2.5971586,4.9309455 2.6877442,4.7496574 2.7789446,4.5821048 2.7841838,4.587344 2.7884435,4.5916037 2.6958707,4.798502 2.5881402,5.0254977 2.4205813,5.3785565 2.3328054,5.5986483 2.2515579,5.8694544 l -0.051902,0.1729925 -0.5599871,1.339e-4 c -0.307993,7.62e-5 -0.605158,0.00388 -0.66036679,0.00845 -0.31304281,0.025936 -0.4002996,0.1210062 -0.4393622,0.4787036 -0.0158941,0.1455427 -0.0159845,1.8042312 -1.0597e-4,1.9449153 0.0288117,0.2552728 0.084089,0.3758622 0.19728072,0.4303748 0.11364609,0.054731 0.20778156,0.061135 0.89882784,0.061144 l 0.5816845,7.1e-6 0.029486,0.1207627 c 0.047566,0.1948113 0.1561273,0.4623475 0.4271849,1.0527476 0.085541,0.18632 0.1544386,0.342037 0.1531053,0.346037 -0.00133,0.004 -0.030131,-0.04167 -0.063996,-0.101477 z"
     id="path3354"
     inkscape:connector-curvature="0" />
  <path
     style="fill:#f9f9f9"
     d="M 2.354019,3.9765801 C 2.109287,3.7308153 1.8969815,3.5110687 1.8822289,3.4882543 1.8437857,3.4288035 1.8199189,3.3601186 1.8156615,3.2966842 1.8120329,3.2426179 1.8121963,3.242102 1.8244998,3.2687809 1.873436,3.3748946 2.0518014,3.5898698 2.3679729,3.9238028 2.6208063,4.1908395 2.8125765,4.409835 2.8024499,4.4199616 2.8005448,4.4218666 2.598751,4.222345 2.354019,3.9765801 Z"
     id="path3356"
     inkscape:connector-curvature="0" />
  <path
     style="fill:#f9f9f9"
     d="m 4.6782938,7.0407623 c -0.00298,-0.080851 0.035316,-0.3046958 0.076548,-0.447468 0.041411,-0.1433922 0.1630184,-0.4485446 0.1742679,-0.4372951 0.00211,0.00211 -0.015214,0.050831 -0.038491,0.1082751 -0.023277,0.057444 -0.057993,0.153682 -0.077145,0.2138621 -0.057505,0.1806846 -0.08906,0.3191239 -0.13056,0.572785 -0.00245,0.014957 -0.00381,0.011971 -0.00462,-0.010159 z"
     id="path3358"
     inkscape:connector-curvature="0" />
  <path
     style="fill:#f9f9f9"
     d=""
     id="path3360"
     inkscape:connector-curvature="0" />
  <path
     style="fill:#f9f9f9"
     d=""
     id="path3362"
     inkscape:connector-curvature="0" />
  <path
     style="fill:#f9f9f9"
     d=""
     id="path3364"
     inkscape:connector-curvature="0" />
  <path
     style="fill:#f9f9f9"
     d=""
     id="path3366"
     inkscape:connector-curvature="0" />
  <path
     style="fill:#f9f9f9"
     d="m 5.1743149,9.3079836 c -0.00311,-0.00311 -0.00565,-0.00959 -0.00565,-0.014407 0,-0.00531 0.00395,-0.00481 0.010028,0.00127 0.00552,0.00552 0.00806,0.011999 0.00565,0.014407 -0.00241,0.00241 -0.00692,0.00184 -0.010028,-0.00127 z"
     id="path3368"
     inkscape:connector-curvature="0" />
  <path
     style="fill:#f9f9f9"
     d=""
     id="path3370"
     inkscape:connector-curvature="0" />
  <path
     style="fill:#f9f9f9"
     d="m 5.9680859,4.832159 c 0.00765,-0.00845 0.058772,-0.04814 0.1136015,-0.088189 0.4150971,-0.3031982 0.9519643,-0.5066407 1.5149439,-0.5740786 0.09781,-0.011716 0.3384747,-0.02592 0.4152542,-0.024507 0.032627,6.003e-4 -0.02576,0.00595 -0.1297491,0.011887 -0.366428,0.020922 -0.6377866,0.06993 -0.9380475,0.1694152 -0.3194776,0.105852 -0.6749811,0.290793 -0.9301794,0.4839004 -0.051473,0.038949 -0.06903,0.047214 -0.045824,0.021572 z"
     id="path3372"
     inkscape:connector-curvature="0" />
  <path
     style="fill:#f9f9f9"
     d="m 1.8122804,3.3327011 c -0.020672,-0.099449 0.00373,-0.2293177 0.059079,-0.3144024 0.033942,-0.052179 1.5944469,-1.613055 1.6452886,-1.6456801 0.060256,-0.038666 0.1310608,-0.061002 0.2074451,-0.06544 0.08565,-0.00498 0.1483257,0.00788 0.2264588,0.046457 0.057208,0.028244 0.093593,0.062436 0.5408271,0.5082263 L 4.9708714,2.3398064 5.0761242,2.2790747 C 5.4714462,2.0509708 5.8951766,1.8653529 6.3112468,1.7380213 6.439184,1.6988682 6.4526772,1.6968833 6.4229833,1.7215848 6.3861547,1.7522213 6.3266444,1.7779725 6.1628691,1.8341409 5.8889975,1.9280679 5.7093955,2.0066432 5.2779841,2.2212754 L 4.959337,2.3798061 4.6127299,2.0323102 C 4.1448438,1.5632243 4.0489742,1.4771896 3.9264578,1.4164401 3.7497302,1.3288101 3.5949295,1.3807127 3.3169702,1.620793 3.1336474,1.7791336 2.5887375,2.3256062 2.2716249,2.6691363 2.0600602,2.8983257 1.8733382,3.1226878 1.8367241,3.191706 c -0.0163,0.030727 -0.017921,0.040444 -0.010045,0.060215 0.00517,0.012967 0.01208,0.031203 0.015364,0.040525 0.00597,0.016949 0.00597,0.016949 -0.00844,0 -0.013761,-0.016185 -0.01418,-0.014563 -0.0093,0.036017 0.00281,0.029131 0.00354,0.052966 0.00161,0.052966 -0.00193,0 -0.00806,-0.021928 -0.013635,-0.048729 z"
     id="path3374"
     inkscape:connector-curvature="0" />
  <path
     style="fill:#f9f9f9"
     d="M 9.479872,1.0784638 C 9.4773399,0.6542012 9.4730987,0.45120165 9.4658405,0.40685364 9.4346446,0.21624712 9.3638864,0.12356256 9.2110381,0.07309347 9.0430007,0.01760912 8.7709094,0.00528189 7.8466313,0.01127837 7.1615297,0.01572313 7.046755,0.0205084 6.9012629,0.05069334 6.6974637,0.09297513 6.6156442,0.17242038 6.5780976,0.36448076 6.5686578,0.41276824 6.5639775,0.54614228 6.5586189,0.91956551 6.551849,1.391339 6.5466363,1.4835865 6.5222237,1.5636333 6.5138305,1.591154 6.5114651,1.4811404 6.5096507,0.97888754 6.507499,0.3832477 6.5080396,0.35818207 6.5241885,0.30480682 6.5653228,0.16885004 6.6660918,0.06945904 6.812733,0.02020798 6.8569351,0.00536221 6.9158231,0.0044207 7.9525635,0.00198406 8.6578803,3.263672e-4 9.0713433,0.00247579 9.1178177,0.00804173 9.2896617,0.0286224 9.4193763,0.13770504 9.4812092,0.3136333 c 0.011694,0.0332721 0.013737,0.12324708 0.016022,0.7055085 0.00167,0.4247246 -3.534e-4,0.6673729 -0.00556,0.6673729 -0.00514,0 -0.00952,-0.225739 -0.011803,-0.6080509 z"
     id="path3376"
     inkscape:connector-curvature="0" />
  <path
     style="fill:#f9f9f9"
     d="M 10.880383,2.2866094 C 10.661847,2.1500876 10.397752,2.0326288 9.7681751,1.7919453 9.6714226,1.7549573 9.5959517,1.7234644 9.600462,1.7219609 c 0.00451,-0.0015 0.059674,0.012958 0.1225857,0.032136 0.3746833,0.1142204 0.7633583,0.2846118 1.1659563,0.5111441 0.139503,0.078495 0.138514,0.077791 0.125038,0.088975 -0.0082,0.0068 -0.04157,-0.010074 -0.133659,-0.067607 z"
     id="path3378"
     inkscape:connector-curvature="0" />
  <path
     style="fill:#f9f9f9"
     d="m 13.931377,8.9952159 c 0.01165,-0.00156 0.122246,-0.00693 0.245763,-0.011945 0.858287,-0.034831 1.108716,-0.063135 1.184433,-0.1338644 0.01958,-0.018293 0.02702,-0.035272 0.03431,-0.078295 0.03063,-0.1807872 0.04434,-0.5724815 0.04434,-1.2668009 0,-0.8646488 -0.0217,-1.2829232 -0.06922,-1.3339216 -0.07293,-0.078277 -0.251911,-0.1014999 -1.049796,-0.1362075 -0.221399,-0.00963 -0.429794,-0.019626 -0.463102,-0.022212 l -0.06056,-0.0047 -0.06538,-0.1921562 C 13.611602,5.4607621 13.512269,5.2296827 13.285984,4.7771513 L 13.134256,4.4737202 13.429003,4.1710388 C 13.591114,4.0045641 13.767082,3.8207692 13.820045,3.7626056 14.062504,3.4963336 14.169665,3.3300828 14.156297,3.2409405 14.136908,3.1116396 13.830979,2.7628942 13.11238,2.0509203 12.666616,1.6092657 12.544664,1.5037033 12.393241,1.4284272 12.17875,1.3217984 12.028846,1.378122 11.708815,1.6855872 c -0.04084,0.039238 -0.07615,0.069445 -0.07847,0.067128 -0.0023,-0.00232 0.07718,-0.0844 0.176668,-0.1824067 0.165879,-0.1634144 0.186796,-0.1811224 0.252198,-0.2135073 0.141322,-0.069978 0.298194,-0.060052 0.431487,0.027301 0.05308,0.034787 1.569293,1.5492281 1.613619,1.6117348 0.09839,0.1387413 0.111661,0.2942247 0.03798,0.4449153 -0.03486,0.071299 -0.04008,0.07692 -0.511968,0.5508474 l -0.476749,0.4788136 0.08005,0.1398305 c 0.155813,0.2721899 0.317369,0.6171073 0.425305,0.9080154 0.04256,0.1147157 0.131971,0.4005881 0.141992,0.4539999 l 0.0052,0.027815 0.628294,2.619e-4 c 0.35577,1.483e-4 0.655824,0.00383 0.691763,0.0085 0.181617,0.023565 0.336181,0.1744599 0.364296,0.3556482 0.01165,0.075088 0.01165,2.1960988 0,2.2711865 -0.0132,0.08506 -0.06501,0.1828528 -0.127567,0.2407664 -0.05507,0.050982 -0.102249,0.078454 -0.177317,0.1032438 -0.04313,0.014243 -0.09247,0.015503 -0.661017,0.016881 -0.337923,8.187e-4 -0.604872,2.153e-4 -0.59322,-0.00134 l 0,-2e-7 z"
     id="path3380"
     inkscape:connector-curvature="0" />
  <path
     style="fill:#f9f9f9"
     d="m 10.920148,9.1335418 c 0,-0.00167 0.01417,-0.029224 0.03149,-0.06124 C 11.189985,8.6317094 11.32554,8.1221162 11.341759,7.605712 11.36381,6.9036072 11.170347,6.2263871 10.781535,5.644636 10.720178,5.5528326 10.644769,5.4511025 10.582568,5.3762198 c -0.02372,-0.028555 -0.03887,-0.049805 -0.0355,-0.049805 0.0121,0 0.158423,0.1867274 0.23723,0.3027344 0.310065,0.456427 0.503494,0.9748777 0.563282,1.5097656 0.04866,0.4353032 0.0076,0.8841987 -0.118833,1.2988281 -0.06454,0.2116962 -0.161336,0.4385723 -0.272473,0.6386719 -0.02849,0.051295 -0.03613,0.063371 -0.03613,0.057127 z"
     id="path3382"
     inkscape:connector-curvature="0" />
  <path
     style="fill:#f9f9f9"
     d="M 10.506606,5.2868585 C 10.417194,5.182793 10.230106,5.0034585 10.10552,4.9023945 9.7347906,4.6016605 9.301421,4.3824748 8.84059,4.2626298 8.6058743,4.2015889 8.3833124,4.169453 8.1140275,4.1577207 c -0.076968,-0.00335 -0.1095246,-0.00601 -0.1015625,-0.00829 0.013999,-0.004 0.1910108,0.00333 0.2832032,0.011732 0.4160169,0.037917 0.809687,0.146336 1.171875,0.3227415 0.273406,0.1331638 0.5021009,0.2858699 0.7417138,0.4952634 0.1167,0.1019823 0.347299,0.3392244 0.337962,0.3476988 -0.0019,0.00176 -0.02006,-0.016089 -0.04061,-0.040011 z"
     id="path3384"
     inkscape:connector-curvature="0" />
  <path
     style="fill:#f9f9f9"
     d="m 7.9011369,10.859711 c -0.6149944,-0.02256 -1.196932,-0.206045 -1.7177455,-0.541605 -0.0306,-0.01972 -0.055649,-0.03815 -0.055664,-0.04096 -1.66e-5,-0.003 0.00194,-0.0039 0.00485,-0.0022 0.00269,0.0016 0.028613,0.01811 0.057617,0.03667 0.4164618,0.266537 0.8554682,0.43005 1.3417969,0.499769 0.2442246,0.03501 0.5340587,0.04146 0.7871094,0.01752 0.4220276,-0.03993 0.8216772,-0.157027 1.2066732,-0.353561 0.050291,-0.02567 0.092114,-0.046 0.09294,-0.04518 0.00441,0.0044 -0.2021293,0.110349 -0.2996128,0.153686 -0.4401657,0.195679 -0.942007,0.293305 -1.4179688,0.275845 z"
     id="path3386"
     inkscape:connector-curvature="0" />
  <path
     style="fill:#f9f9f9"
     d="M 6.0762746,10.245613 C 5.9206369,10.137394 5.7810145,10.019411 5.629924,9.868441 5.4680285,9.7066742 5.3469051,9.5609861 5.2270778,9.3838947 c -0.048963,-0.072361 -0.047107,-0.069243 -0.042794,-0.071908 0.0019,-0.00117 0.011841,0.010569 0.022091,0.026097 0.2252956,0.3413086 0.5175969,0.6448265 0.8496282,0.8822321 0.031178,0.02229 0.060944,0.04331 0.066146,0.04669 0.00568,0.0037 0.0078,0.0072 0.0053,0.0087 -0.00229,0.0014 -0.025315,-0.01215 -0.051178,-0.03013 z"
     id="path3388"
     inkscape:connector-curvature="0" />
  <path
     style="fill:#f9f9f9"
     d="M 5.1615822,9.2851644 C 4.981428,9.0007873 4.8264854,8.6394759 4.7567934,8.341235 c -0.016161,-0.069157 -0.017088,-0.090337 -0.00121,-0.027653 0.08204,0.3239022 0.2122394,0.6358982 0.3812945,0.9136903 0.020141,0.033096 0.035178,0.061617 0.033416,0.063379 -0.00176,0.00176 -0.00568,-7.068e-4 -0.00871,-0.00549 z"
     id="path3390"
     inkscape:connector-curvature="0" />
  <path
     style="fill:#f9f9f9"
     d="m 4.6635931,7.2139728 c 0.00217,-0.078595 0.011092,-0.2018417 0.012731,-0.1758567 6.75e-4,0.010701 0.00266,0.020369 0.00441,0.021484 0.00175,0.00112 -8.44e-5,0.031033 -0.00408,0.066482 -0.00399,0.035449 -0.00896,0.083789 -0.011025,0.1074219 -0.0037,0.042305 -0.00374,0.042003 -0.00204,-0.019531 z"
     id="path3392"
     inkscape:connector-curvature="0" />
  <path
     style="fill:#f9f9f9"
     d="m 4.9312057,6.1600314 c -1.374e-4,-0.00389 -0.00201,-0.00598 -0.00416,-0.00465 -0.00644,0.00398 -0.00478,-3.515e-4 0.016135,-0.042063 0.044037,-0.087822 0.097099,-0.1838955 0.099977,-0.1810172 0.0011,0.0011 -0.00505,0.014823 -0.013653,0.030505 -0.00861,0.015682 -0.031707,0.06279 -0.051337,0.1046846 -0.019631,0.041895 -0.038172,0.081445 -0.041204,0.087891 -0.00378,0.00804 -0.00559,0.0095 -0.00576,0.00465 z"
     id="path3394"
     inkscape:connector-curvature="0" />
  <path
     style="fill:#f9f9f9"
     d="m 11.325487,2.0508681 c 0,-5.474e-4 0.0683,-0.069278 0.151776,-0.152734 0.106014,-0.1059881 0.152454,-0.1499723 0.154024,-0.1458805 0.0015,0.00403 -0.04516,0.051706 -0.149609,0.152734 -0.133665,0.1292794 -0.156191,0.1503186 -0.156191,0.1458805 z"
     id="path3396"
     inkscape:connector-curvature="0" />
  <path
     style="fill:#f9f9f9"
     d="m 12.579862,1.4657391 c -0.03734,-0.036421 -0.06592,-0.066219 -0.0635,-0.066219 0.0024,0 0.03472,0.02982 0.0718,0.066267 0.03707,0.036447 0.06565,0.066245 0.0635,0.066219 -0.0021,-2.61e-5 -0.03446,-0.029846 -0.0718,-0.066267 z"
     id="path3398"
     inkscape:connector-curvature="0" />
</svg>
