<?xml version="1.0" encoding="UTF-8" standalone="no"?>
<svg
   xmlns:dc="http://purl.org/dc/elements/1.1/"
   xmlns:cc="http://creativecommons.org/ns#"
   xmlns:rdf="http://www.w3.org/1999/02/22-rdf-syntax-ns#"
   xmlns:svg="http://www.w3.org/2000/svg"
   xmlns="http://www.w3.org/2000/svg"
   xmlns:sodipodi="http://sodipodi.sourceforge.net/DTD/sodipodi-0.dtd"
   xmlns:inkscape="http://www.inkscape.org/namespaces/inkscape"
   height="16"
   width="16"
   version="1.1"
   id="svg2"
   inkscape:version="0.91 r13725"
   sodipodi:docname="share.svg">
  <metadata
     id="metadata12">
    <rdf:RDF>
      <cc:Work
         rdf:about="">
        <dc:format>image/svg+xml</dc:format>
        <dc:type
           rdf:resource="http://purl.org/dc/dcmitype/StillImage" />
      </cc:Work>
    </rdf:RDF>
  </metadata>
  <defs
     id="defs10" />
  <sodipodi:namedview
     pagecolor="#ffffff"
     bordercolor="#666666"
     borderopacity="1"
     objecttolerance="10"
     gridtolerance="10"
     guidetolerance="10"
     inkscape:pageopacity="0"
     inkscape:pageshadow="2"
     inkscape:window-width="958"
     inkscape:window-height="1180"
     id="namedview8"
     showgrid="false"
     inkscape:zoom="256"
     inkscape:cx="14.138455"
     inkscape:cy="12.957885"
     inkscape:window-x="0"
     inkscape:window-y="18"
     inkscape:window-maximized="0"
     inkscape:current-layer="svg2" />
  <g
     transform="translate(0 -1036.4)"
     id="g4">
    <path
       d="m12.228 1037.4c-1.3565 0-2.4592 1.0977-2.4592 2.4542 0 0.075 0.0084 0.1504 0.0149 0.2236l-4.7346 2.4145c-0.4291-0.3667-0.98611-0.5863-1.5947-0.5863-1.3565 0-2.4542 1.0977-2.4542 2.4543 0 1.3565 1.0977 2.4542 2.4542 2.4542 0.54607 0 1.0528-0.1755 1.4606-0.477l4.8637 2.4741c-0.0024 0.044-0.0099 0.089-0.0099 0.1342 0 1.3565 1.1027 2.4542 2.4592 2.4542s2.4542-1.0977 2.4542-2.4542-1.0977-2.4592-2.4542-2.4592c-0.63653 0-1.218 0.2437-1.6544 0.6409l-4.6953-2.4c0.01892-0.1228 0.03478-0.2494 0.03478-0.3775 0-0.072-0.0089-0.1437-0.0149-0.2137l4.7395-2.4145c0.42802 0.3627 0.98488 0.5813 1.5898 0.5813 1.3565 0 2.4542-1.1027 2.4542-2.4592s-1.0977-2.4542-2.4542-2.4542z"
       id="path6" />
  </g>
  <path
     style="fill:#f9f9f9"
     d="M 11.827152,14.923608 C 11.338498,14.844419 10.82307,14.563101 10.464728,14.180004 10.071688,13.759813 9.8771932,13.333534 9.8338834,12.797369 L 9.8006902,12.386441 7.3746689,11.14966 4.9486473,9.9128793 4.4844932,10.132711 C 4.0739004,10.327175 3.9536503,10.35253 3.4424266,10.352436 2.9262771,10.352368 2.8161631,10.328527 2.4120971,10.129606 0.90787347,9.3890793 0.5777662,7.438186 1.7571286,6.2588235 2.5755241,5.440428 3.8256819,5.3197068 4.8119038,5.9638398 L 5.0610957,6.126595 7.4309671,4.9175348 9.8008386,3.7084746 9.8329837,3.2614159 C 9.8952793,2.395041 10.4073,1.6530892 11.210999,1.264582 c 0.349729,-0.1690586 0.482795,-0.1949633 1.013926,-0.1973862 0.556037,-0.00254 0.652013,0.017211 1.060501,0.2182065 0.522695,0.2571903 0.881131,0.6245419 1.132529,1.1606986 0.154084,0.3286147 0.178517,0.4695992 0.177651,1.0250855 -8.95e-4,0.5727256 -0.02201,0.6841713 -0.190682,1.0061162 -0.446173,0.8516345 -1.115702,1.3009207 -2.016329,1.3530573 -0.598116,0.034624 -1.048499,-0.077101 -1.490838,-0.3698264 L 10.636612,5.2877152 8.2579275,6.4980949 5.8792439,7.7084746 l 0.0197,0.338983 0.0197,0.3389831 2.2711864,1.1657857 c 1.2491526,0.6411826 2.3113575,1.1674536 2.3604555,1.1694916 0.0491,0.002 0.186387,-0.07002 0.305085,-0.160125 0.396062,-0.30066 0.779921,-0.412694 1.402256,-0.409267 0.491468,0.0027 0.635511,0.03175 0.978831,0.197387 0.510766,0.246414 0.947644,0.682118 1.179123,1.175948 0.156369,0.333593 0.181029,0.47394 0.181029,1.030271 0,0.567854 -0.02242,0.689717 -0.18944,1.029837 -0.463238,0.943323 -1.546927,1.505257 -2.580018,1.337839 z"
     id="path3340"
     inkscape:connector-curvature="0" />
  <path
     style="fill:#f9f9f9"
     d="M 12.014372,14.987421 C 11.69131,14.956076 11.395528,14.871241 11.118093,14.730356 10.511742,14.422442 10.053342,13.869423 9.8687814,13.22317 9.8036956,12.995267 9.7772533,12.808918 9.7762898,12.571343 L 9.775617,12.405389 8.3273724,11.668801 C 7.5308377,11.263678 6.8771837,10.927282 6.8748077,10.921254 c -0.00238,-0.006 -0.00237,-0.01291 1.97e-5,-0.0153 0.00334,-0.0033 2.9090572,1.472871 2.919281,1.483095 0.00128,0.0013 0.011906,0.116387 0.023615,0.255795 0.029898,0.355984 0.052642,0.487204 0.1195806,0.68991 0.073411,0.222308 0.2138144,0.474313 0.3802854,0.682562 0.09107,0.113923 0.293508,0.316452 0.40245,0.402627 0.342446,0.270883 0.733598,0.44663 1.141548,0.512906 0.128568,0.02089 0.445499,0.02562 0.590269,0.0088 0.878491,-0.101963 1.632223,-0.641043 1.992055,-1.424745 0.06813,-0.148379 0.108547,-0.268513 0.126872,-0.377087 0.04248,-0.25169 0.04066,-0.925126 -0.0032,-1.181638 -0.03623,-0.211907 -0.152769,-0.481242 -0.31323,-0.723896 -0.245591,-0.371389 -0.587666,-0.672169 -0.997128,-0.876756 -0.344313,-0.172036 -0.520497,-0.20874 -1.003722,-0.209104 -0.459687,-3.46e-4 -0.760821,0.05641 -1.057213,0.199273 -0.118365,0.05705 -0.183345,0.09692 -0.357617,0.219437 -0.100193,0.07044 -0.20087,0.128876 -0.208637,0.121109 -0.0019,-0.0019 0.03562,-0.03416 0.08348,-0.07158 0.308378,-0.241166 0.656479,-0.402035 1.031546,-0.476713 0.189054,-0.03764 0.276425,-0.04591 0.483437,-0.04576 0.20175,1.52e-4 0.292441,0.0084 0.469411,0.04255 0.881907,0.170333 1.61226,0.829991 1.872937,1.691645 0.07786,0.257363 0.102077,0.429302 0.101754,0.722446 -2.62e-4,0.23747 -0.01341,0.360676 -0.05915,0.554347 -0.08252,0.349401 -0.250214,0.693838 -0.474837,0.975314 -0.07398,0.0927 -0.283513,0.302239 -0.376217,0.376217 -0.23781,0.189777 -0.555469,0.356266 -0.834366,0.437301 -0.229606,0.06671 -0.406227,0.09305 -0.652922,0.09735 -0.102542,0.0018 -0.219881,5e-6 -0.260752,-0.004 z"
     id="path3342"
     inkscape:connector-curvature="0" />
  <path
     style="fill:#f9f9f9"
     d="M 9.3952966,10.157378 C 8.8526224,9.8849799 7.9512065,9.4270544 7.3921502,9.1397653 6.8330939,8.8524762 6.2726177,8.56449 6.1466475,8.499796 6.0206773,8.435102 5.9175115,8.3759557 5.9173902,8.3683598 c -1.213e-4,-0.0076 0.00121,-0.013811 0.00297,-0.013811 0.00175,0 0.9476464,0.4827888 2.1019854,1.072864 1.1543391,0.5900749 2.1659178,1.1068869 2.2479538,1.1484699 0.08203,0.04158 0.140723,0.07587 0.130418,0.07618 -0.01031,3.19e-4 -0.4627432,-0.222292 -1.0054174,-0.494689 z"
     id="path3344"
     inkscape:connector-curvature="0" />
  <path
     style="fill:#f9f9f9"
     d="M 5.9613639,10.463657 C 5.4721896,10.214266 5.0371532,9.9922252 4.9946163,9.9702333 c -0.048329,-0.024986 -0.070302,-0.041524 -0.058579,-0.044088 0.022003,-0.00481 1.9423891,0.9711394 1.9350034,0.9833794 -0.00275,0.0046 -0.00844,0.0081 -0.012635,0.0079 -0.0042,-1.97e-4 -0.4078678,-0.204406 -0.897042,-0.453797 z"
     id="path3346"
     inkscape:connector-curvature="0" />
  <path
     style="fill:#f9f9f9"
     d="M 3.2047523,10.397395 C 2.1760702,10.285498 1.3206538,9.5419891 1.0785442,8.5493436 1.0284124,8.3438037 1.0103526,8.187232 1.0101975,7.9568016 1.009935,7.5668716 1.085167,7.2381767 1.2542268,6.8906171 1.376771,6.6386862 1.5113004,6.4486742 1.710928,6.2455633 1.9137912,6.0391604 2.1293111,5.8829854 2.3761115,5.7635427 2.7345661,5.5900632 3.0637334,5.5148233 3.4621968,5.5152892 c 0.4569807,5.342e-4 0.8782672,0.1183782 1.270782,0.3554685 0.1052768,0.06359 0.3155699,0.2183089 0.3075819,0.226297 -0.00278,0.00278 -0.078888,-0.042675 -0.16913,-0.1010089 C 4.5377398,5.7803413 4.2446344,5.6569733 3.9132163,5.5927337 2.8677305,5.3900845 1.8232793,5.8958554 1.3128548,6.8519472 1.1919853,7.0783517 1.0957949,7.380807 1.0615292,7.642201 1.0395341,7.809989 1.0397917,8.1190921 1.0620603,8.2795916 1.1752489,9.09539 1.6705294,9.769858 2.4306445,10.143316 c 0.3973542,0.195227 0.5139582,0.217316 1.0965063,0.207721 0.5106152,-0.0084 0.5411847,-0.01615 1.0959388,-0.277631 0.1116487,-0.05262 0.2051967,-0.093481 0.2078845,-0.090794 0.00906,0.00906 -0.1999941,0.1320666 -0.3245234,0.1909416 -0.213359,0.100871 -0.4423564,0.170709 -0.68298,0.208288 -0.1365638,0.02133 -0.4850882,0.03009 -0.6187184,0.01555 z"
     id="path3348"
     inkscape:connector-curvature="0" />
  <path
     style="fill:#f9f9f9"
     d="m 5.8882604,7.7585009 0.00129,-0.049145 2.3728407,-1.2074607 2.372841,-1.2074607 0.179373,0.1174517 c 0.336547,0.2203685 0.554372,0.3171007 0.853334,0.3789515 0.315951,0.065366 0.784063,0.062825 1.110378,-0.00603 0.724534,-0.1528744 1.267459,-0.5957347 1.652192,-1.3476805 0.07915,-0.1546921 0.118493,-0.2667541 0.145219,-0.4136104 0.02786,-0.1530683 0.02818,-0.9451567 4.57e-4,-1.1140325 C 14.541817,2.7001459 14.444889,2.4578017 14.293523,2.202764 14.030959,1.7603677 13.686165,1.4619384 13.155779,1.2180146 12.880888,1.0915926 12.7852,1.0730443 12.369519,1.0656043 11.735905,1.0542638 11.552386,1.0874215 11.167298,1.2828182 10.570826,1.5854729 10.142835,2.0746245 9.9439866,2.6809423 9.8652336,2.9210716 9.8418574,3.0609797 9.8120988,3.4702999 c -0.00902,0.1241361 -0.02055,0.2298434 -0.025612,0.2349049 -0.00506,0.00506 -1.0703875,0.5505874 -2.367391,1.2122797 -2.016518,1.028767 -2.4673072,1.2538262 -2.3609394,1.1787132 0.00944,-0.00667 1.0757181,-0.5515694 2.3695002,-1.2108912 l 2.352331,-1.198767 -5.06e-4,-0.2264951 c -5.8e-4,-0.2594515 0.015854,-0.3927696 0.077591,-0.6294363 0.2344019,-0.8985669 0.9852039,-1.6030046 1.8946359,-1.7776385 0.294131,-0.0564806 0.641108,-0.066227 0.877451,-0.024647 0.685357,0.1205747 1.256394,0.4924816 1.644195,1.0708375 0.147943,0.2206367 0.296797,0.5775093 0.34946,0.8378143 0.02042,0.1009461 0.0227,0.15243 0.0227,0.512427 0,0.3893941 -7.66e-4,0.40362 -0.02834,0.5265751 C 14.452355,4.7108617 13.970695,5.3183521 13.286548,5.6542205 12.518319,6.0313675 11.580173,5.964455 10.864935,5.4815009 10.78399,5.426844 10.699923,5.3670742 10.67812,5.3486792 l -0.03964,-0.033446 -2.3710361,1.2075364 -2.3710358,1.2075363 -0.00472,0.03867 c -0.00364,0.029802 -0.00442,0.0274 -0.00343,-0.010475 z"
     id="path3350"
     inkscape:connector-curvature="0" />
  <path
     style="fill:#f9f9f9"
     d="m 14.641057,3.8514904 c 0.0033,-0.050144 0.0032,-0.7477069 -2.08e-4,-0.8066406 l -0.0027,-0.046875 0.0075,0.041016 c 0.0098,0.053673 0.0219,0.1513402 0.02787,0.2246094 0.0061,0.075398 0.0061,0.2882077 -4e-5,0.3613281 -0.0058,0.069134 -0.02259,0.2036632 -0.02969,0.2382813 l -0.0052,0.025391 0.0025,-0.037109 z"
     id="path3352"
     inkscape:connector-curvature="0" />
  <path
     style="fill:#f9f9f9"
     d="m 14.561995,2.7084054 c -0.03841,-0.1176962 -0.08736,-0.2378011 -0.145321,-0.3565429 -0.02245,-0.045987 -0.04002,-0.084401 -0.03906,-0.085365 0.0034,-0.00343 0.06978,0.1310904 0.104445,0.2117453 0.04115,0.095745 0.09876,0.2581258 0.09616,0.2710627 -6.03e-4,0.00301 -0.0079,-0.015398 -0.01623,-0.0409 z"
     id="path3354"
     inkscape:connector-curvature="0" />
</svg>
