<?xml version="1.0" encoding="UTF-8" standalone="no"?>
<svg
   xmlns:dc="http://purl.org/dc/elements/1.1/"
   xmlns:cc="http://creativecommons.org/ns#"
   xmlns:rdf="http://www.w3.org/1999/02/22-rdf-syntax-ns#"
   xmlns:svg="http://www.w3.org/2000/svg"
   xmlns="http://www.w3.org/2000/svg"
   xmlns:sodipodi="http://sodipodi.sourceforge.net/DTD/sodipodi-0.dtd"
   xmlns:inkscape="http://www.inkscape.org/namespaces/inkscape"
   height="16"
   width="16"
   version="1.1"
   id="svg2"
   inkscape:version="0.91 r13725"
   sodipodi:docname="shared.svg">
  <metadata
     id="metadata12">
    <rdf:RDF>
      <cc:Work
         rdf:about="">
        <dc:format>image/svg+xml</dc:format>
        <dc:type
           rdf:resource="http://purl.org/dc/dcmitype/StillImage" />
      </cc:Work>
    </rdf:RDF>
  </metadata>
  <defs
     id="defs10" />
  <sodipodi:namedview
     pagecolor="#ffffff"
     bordercolor="#666666"
     borderopacity="1"
     objecttolerance="10"
     gridtolerance="10"
     guidetolerance="10"
     inkscape:pageopacity="0"
     inkscape:pageshadow="2"
     inkscape:window-width="958"
     inkscape:window-height="1180"
     id="namedview8"
     showgrid="false"
     inkscape:zoom="256"
     inkscape:cx="2.434914"
     inkscape:cy="8.9570353"
     inkscape:window-x="0"
     inkscape:window-y="18"
     inkscape:window-maximized="0"
     inkscape:current-layer="svg2" />
  <g
     transform="translate(0 -1036.4)"
     id="g4">
    <path
       d="m12.228 1037.4c-1.3565 0-2.4592 1.0977-2.4592 2.4542 0 0.075 0.0084 0.1504 0.0149 0.2236l-4.7346 2.4145c-0.4291-0.3667-0.98611-0.5863-1.5947-0.5863-1.3565 0-2.4542 1.0977-2.4542 2.4543 0 1.3565 1.0977 2.4542 2.4542 2.4542 0.54607 0 1.0528-0.1755 1.4606-0.477l4.8637 2.4741c-0.0024 0.044-0.0099 0.089-0.0099 0.1342 0 1.3565 1.1027 2.4542 2.4592 2.4542s2.4542-1.0977 2.4542-2.4542-1.0977-2.4592-2.4542-2.4592c-0.63653 0-1.218 0.2437-1.6544 0.6409l-4.6953-2.4c0.01892-0.1228 0.03478-0.2494 0.03478-0.3775 0-0.072-0.0089-0.1437-0.0149-0.2137l4.7395-2.4145c0.42802 0.3627 0.98488 0.5813 1.5898 0.5813 1.3565 0 2.4542-1.1027 2.4542-2.4592s-1.0977-2.4542-2.4542-2.4542z"
       id="path6" />
  </g>
  <path
     style="fill:#f9f9f9"
     d="M 11.97584,14.981232 C 11.635947,14.946498 11.240953,14.813571 10.957127,14.638405 10.711541,14.486839 10.436909,14.240554 10.276251,14.027808 9.9570662,13.605136 9.7846813,13.106456 9.7784349,12.587712 L 9.7762202,12.403788 7.3734546,11.180811 C 6.0519335,10.508174 4.957206,9.9527108 4.9407268,9.9464478 c -0.025838,-0.00982 -0.043986,-0.00203 -0.1318335,0.056561 -0.1450855,0.09677 -0.4024997,0.221408 -0.5761808,0.278977 -0.2622714,0.08693 -0.4876718,0.12264 -0.774184,0.12264 -0.4663038,0 -0.8742817,-0.11252 -1.2700139,-0.350267 l -0.1241544,-0.07459 0,-2.0169978 0,-2.0169979 0.092883,-0.060879 C 2.393772,5.7298636 2.7284204,5.6025536 3.0531112,5.5440797 3.2183862,5.5143153 3.5837117,5.5078956 3.7631548,5.5316025 4.2051501,5.5899962 4.6461741,5.774636 4.9733093,6.0382474 l 0.074529,0.060057 0.1531829,-0.077673 C 5.2852722,5.977912 6.3034055,5.4590011 7.46354,4.8674966 8.6236745,4.2759921 9.6216547,3.7675802 9.6812737,3.7376924 L 9.789672,3.683351 9.7799988,3.5833598 c -0.00532,-0.054995 -0.00639,-0.1552714 -0.00238,-0.222836 l 0.0073,-0.1228448 2.4437579,0 2.443759,0 0,0.1890759 c 0,0.4024493 -0.07659,0.7428061 -0.244714,1.0875397 -0.294154,0.6031416 -0.805253,1.0502349 -1.438964,1.2587627 -0.76511,0.2517654 -1.605314,0.1106422 -2.246293,-0.3772941 -0.05254,-0.039995 -0.101089,-0.072719 -0.107886,-0.072719 -0.0068,0 -1.0765316,0.542078 -2.3771865,1.2046177 l -2.364827,1.2046177 0.00959,0.1047283 c 0.00595,0.064906 0.00421,0.1662499 -0.00457,0.266524 -0.00779,0.088988 -0.014587,0.1775322 -0.015107,0.1967659 -9.349e-4,0.034599 0.023874,0.04767 2.3361028,1.2307819 1.2853763,0.6576968 2.3424408,1.1959958 2.3490328,1.1962218 0.0066,2.25e-4 0.06592,-0.04292 0.131833,-0.09588 0.571379,-0.459053 1.311005,-0.6348599 2.037277,-0.484254 0.837959,0.173765 1.546499,0.809852 1.814079,1.628576 0.08721,0.266851 0.121626,0.484782 0.121626,0.770245 0,0.491087 -0.138092,0.951915 -0.404962,1.351403 -0.50918,0.762212 -1.38509,1.176478 -2.291632,1.083838 z"
     id="path3340"
     inkscape:connector-curvature="0" />
  <path
     style="fill:#f9f9f9"
     d="M 9.7893226,3.1747584 C 9.8207356,2.9125408 9.8998553,2.6434955 10.01707,2.4003053 10.334533,1.7416541 10.921067,1.2608842 11.626885,1.080773 c 0.243042,-0.06202 0.625624,-0.094756 0.844053,-0.072222 0.845272,0.0872 1.584841,0.6022787 1.956658,1.3627286 0.111904,0.2288677 0.200546,0.5290126 0.230214,0.7795095 l 0.01029,0.08689 -2.443158,0 -2.4431581,0 0.00754,-0.062921 z"
     id="path3342"
     inkscape:connector-curvature="0" />
  <path
     style="fill:#f9f9f9"
     d="M 1.7603179,9.7045059 C 0.92174393,8.8741429 0.77849245,7.5992776 1.4143102,6.6252139 1.535098,6.4401686 1.9617194,5.9935684 2.0176987,5.9935684 c 0.021329,0 0.031874,0.6513743 0.031874,1.96875 0,1.2472094 -0.011078,1.96875 -0.030226,1.96875 -0.016624,0 -0.1331874,-0.1019531 -0.2590289,-0.2265625 z"
     id="path3346"
     inkscape:connector-curvature="0" />
  <path
     style="fill:#f9f9f9"
     d="M 2.0238205,9.9528198 C 1.6305026,9.6662176 1.3397961,9.2904134 1.1664915,8.8445272 1.013771,8.4516009 0.96650133,8.0168354 1.0301612,7.5906209 1.1180018,7.0025118 1.4242838,6.459677 1.8853047,6.075019 1.9281458,6.039274 2.0262458,5.9646186 2.0503437,5.9494221 l 0.012695,-0.00801 0,2.0179618 c 0,1.1098789 -0.00132,2.017914 -0.00293,2.0178558 -0.00161,-5.86e-5 -0.017941,-0.011045 -0.036289,-0.024414 z m 0.00405,-0.059834 c 0.00568,-0.055789 0.011259,-0.2336501 0.016466,-0.5250211 0.00668,-0.3738042 0.00668,-2.4832717 3.9e-6,-2.8378906 C 2.0372759,6.1550094 2.0304622,6.0057004 2.0199294,5.9951675 2.0074371,5.9826752 1.937013,6.040564 1.8089526,6.1685909 1.6382306,6.3392682 1.4877408,6.5125661 1.4119376,6.6257772 1.3595483,6.7040199 1.2889843,6.8308521 1.2445958,6.9265584 0.93085428,7.6030189 0.94313098,8.3751203 1.2782728,9.0445606 c 0.1325203,0.2647071 0.3090513,0.4996793 0.5400519,0.718838 0.116931,0.1109368 0.1949452,0.175429 0.2027588,0.1676153 0.00178,-0.00178 0.00484,-0.018896 0.00678,-0.038028 z"
     id="path3348"
     inkscape:connector-curvature="0" />
</svg>
