<?xml version="1.0" encoding="UTF-8" standalone="no"?>
<svg
   xmlns:dc="http://purl.org/dc/elements/1.1/"
   xmlns:cc="http://creativecommons.org/ns#"
   xmlns:rdf="http://www.w3.org/1999/02/22-rdf-syntax-ns#"
   xmlns:svg="http://www.w3.org/2000/svg"
   xmlns="http://www.w3.org/2000/svg"
   xmlns:sodipodi="http://sodipodi.sourceforge.net/DTD/sodipodi-0.dtd"
   xmlns:inkscape="http://www.inkscape.org/namespaces/inkscape"
   height="16"
   width="16"
   version="1.0"
   id="svg2"
   inkscape:version="0.91 r13725"
   sodipodi:docname="toggle-pictures.svg">
  <metadata
     id="metadata16">
    <rdf:RDF>
      <cc:Work
         rdf:about="">
        <dc:format>image/svg+xml</dc:format>
        <dc:type
           rdf:resource="http://purl.org/dc/dcmitype/StillImage" />
      </cc:Work>
    </rdf:RDF>
  </metadata>
  <defs
     id="defs14" />
  <sodipodi:namedview
     pagecolor="#ffffff"
     bordercolor="#666666"
     borderopacity="1"
     objecttolerance="10"
     gridtolerance="10"
     guidetolerance="10"
     inkscape:pageopacity="0"
     inkscape:pageshadow="2"
     inkscape:window-width="958"
     inkscape:window-height="1180"
     id="namedview12"
     showgrid="false"
     inkscape:zoom="118"
     inkscape:cx="10.017549"
     inkscape:cy="12.064204"
     inkscape:window-x="0"
     inkscape:window-y="18"
     inkscape:window-maximized="0"
     inkscape:current-layer="svg2" />
  <rect
     rx=".5"
     ry=".5"
     height="6"
     width="6"
     y="1"
     x="1"
     id="rect4" />
  <rect
     rx=".5"
     ry=".5"
     height="6"
     width="6"
     y="1"
     x="9"
     id="rect6" />
  <rect
     rx=".5"
     ry=".5"
     height="6"
     width="6"
     y="9"
     x="9"
     id="rect8" />
  <rect
     rx=".5"
     ry=".5"
     height="6"
     width="6"
     y="9"
     x="1"
     id="rect10" />
  <path
     style="fill:#f9f9f9"
     d="M 1.2963511,6.9172363 C 1.0128133,6.7778186 0.99767725,6.6130094 1.0179682,3.886054 L 1.0372881,1.2896033 1.1973413,1.1600559 C 1.348822,1.0374471 1.4997914,1.0305085 4.0160319,1.0305085 l 2.6586374,0 0.1474111,0.1569119 c 0.1461582,0.1555784 0.1474111,0.179427 0.1474111,2.8060485 0,2.5069039 -0.00696,2.6577299 -0.1295495,2.8091898 L 6.7103923,6.9627119 4.0772301,6.9762908 c -1.7620136,0.00909 -2.6820325,-0.010451 -2.780879,-0.059055 z"
     id="path3344"
     inkscape:connector-curvature="0" />
  <path
     style="fill:#f9f9f9"
     d="M 9.2963511,6.9172363 C 9.0128133,6.7778186 8.9976772,6.6130094 9.0179682,3.886054 L 9.0372881,1.2896033 9.1973413,1.1600559 C 9.348822,1.0374471 9.4997914,1.0305085 12.016032,1.0305085 l 2.658637,0 0.147411,0.1569119 c 0.146159,0.1555784 0.147412,0.179427 0.147412,2.8060485 0,2.5069039 -0.007,2.6577299 -0.12955,2.8091898 l -0.12955,0.1600532 -2.633162,0.013579 c -1.762013,0.00909 -2.6820324,-0.010451 -2.7808789,-0.059055 z"
     id="path3346"
     inkscape:connector-curvature="0" />
  <path
     style="fill:#f9f9f9"
     d="M 9.2963511,14.917236 C 9.0128133,14.777819 8.9976772,14.613009 9.0179682,11.886054 L 9.0372881,9.2896033 9.1973413,9.1600559 C 9.348822,9.0374471 9.4997914,9.0305085 12.016032,9.0305085 l 2.658637,0 0.147411,0.1569119 c 0.146159,0.1555784 0.147412,0.179427 0.147412,2.8060486 0,2.506904 -0.007,2.65773 -0.12955,2.80919 l -0.12955,0.160053 -2.633162,0.01358 c -1.762013,0.0091 -2.6820324,-0.01045 -2.7808789,-0.05905 z"
     id="path3348"
     inkscape:connector-curvature="0" />
  <path
     style="fill:#f9f9f9"
     d="M 1.2963511,14.917236 C 1.0128133,14.777819 0.99767725,14.613009 1.0179682,11.886054 L 1.0372881,9.2896033 1.1973413,9.1600559 C 1.348822,9.0374471 1.4997914,9.0305085 4.0160319,9.0305085 l 2.6586374,0 0.1474111,0.1569119 c 0.1461582,0.1555784 0.1474111,0.179427 0.1474111,2.8060486 0,2.506904 -0.00696,2.65773 -0.1295495,2.80919 l -0.1295497,0.160053 -2.6331622,0.01358 c -1.7620136,0.0091 -2.6820325,-0.01045 -2.780879,-0.05905 z"
     id="path3350"
     inkscape:connector-curvature="0" />
  <path
     style="fill:#f9f9f9"
     d="m 1.0809163,9.233496 c 0,-0.00499 0.031462,-0.040349 0.069915,-0.078568 0.048616,-0.048318 0.086833,-0.077735 0.1254482,-0.096561 0.1169814,-0.05703 -0.099151,-0.0529 2.7283653,-0.052141 2.0588974,5.528e-4 2.5719009,0.00283 2.6059322,0.01158 0.034858,0.00896 -0.355182,0.011093 -2.1991525,0.012029 -2.5103882,0.00127 -2.7926181,0.00576 -3.0254237,0.048133 -0.094851,0.017262 -0.1428603,0.040129 -0.2271887,0.1082116 -0.07329,0.05917 -0.077896,0.061968 -0.077896,0.047317 z"
     id="path3352"
     inkscape:connector-curvature="0" />
  <path
     style="fill:#f9f9f9"
     d="m 6.7504078,14.924958 c 0,-0.0028 0.026779,-0.03832 0.059508,-0.07892 0.073876,-0.09162 0.090147,-0.124729 0.110069,-0.223943 0.045937,-0.228772 0.05274,-0.63846 0.048451,-2.917658 C 6.9648023,9.7741908 6.9625587,9.6311632 6.9327327,9.428421 6.9135618,9.2981069 6.8979755,9.2668198 6.7963341,9.1546208 c -0.04907,-0.054167 -0.084891,-0.098486 -0.079602,-0.098486 0.019767,0 0.1023101,0.062199 0.1479187,0.1114619 0.048086,0.051938 0.077227,0.1012358 0.1093342,0.1849578 l 0.017948,0.046801 0.00235,2.5720334 c 0.0026,2.855139 0.00693,2.631829 -0.053342,2.752149 -0.032655,0.06519 -0.093876,0.137408 -0.1512814,0.178463 -0.021586,0.01544 -0.039247,0.02577 -0.039247,0.02296 z"
     id="path3354"
     inkscape:connector-curvature="0" />
  <path
     style="fill:#f9f9f9"
     d="M 1.4226342,14.990999 C 1.2360211,14.9594 1.068615,14.806667 1.0198829,14.623548 c -0.010086,-0.0379 -0.012075,-0.125586 -0.01104,-0.486904 0.00117,-0.40898 0.00171,-0.4242 0.00754,-0.211599 0.018581,0.678161 0.070036,0.884865 0.2431,0.976576 0.137087,0.07264 0.5569619,0.08221 3.2860347,0.07483 1.1233051,-0.003 2.0614407,-0.0073 2.0847458,-0.0094 l 0.042373,-0.0039 -0.038136,0.01469 c -0.035862,0.01382 -0.1917202,0.01475 -2.6144068,0.0157 -1.4169491,5.54e-4 -2.5858051,-6.09e-4 -2.5974576,-0.0026 z"
     id="path3356"
     inkscape:connector-curvature="0" />
  <path
     style="fill:#f9f9f9"
     d="m 1.0089895,10.856983 c -0.00109,-1.2209248 5.095e-4,-1.4384546 0.010865,-1.4745766 0.013054,-0.045533 0.013225,-0.1444886 -0.00366,2.1144066 -0.00562,0.75157 -0.00599,0.718623 -0.00721,-0.63983 z"
     id="path3358"
     inkscape:connector-curvature="0" />
  <path
     style="fill:#f9f9f9"
     d="M 1.4226342,6.9909994 C 1.2360211,6.9594005 1.068615,6.8066667 1.0198829,6.6235476 1.0097965,6.5856463 1.0078083,6.4979617 1.0088427,6.1366437 c 0.00117,-0.4089795 0.00171,-0.4242 0.00754,-0.2115986 0.018581,0.6781604 0.070036,0.8848649 0.2431,0.9765756 0.137087,0.072646 0.5569619,0.082207 3.2860347,0.074828 1.1233051,-0.00304 2.0614407,-0.00726 2.0847458,-0.00939 l 0.042373,-0.00387 -0.038136,0.014693 C 6.5986365,6.9917 6.4427784,6.9926358 4.0200918,6.9935814 2.6031427,6.9941348 1.4342867,6.9929721 1.4226342,6.9909994 Z"
     id="path3360"
     inkscape:connector-curvature="0" />
  <path
     style="fill:#f9f9f9"
     d="m 1.0751766,1.2455927 c 0,-0.00412 0.018959,-0.03093 0.04213,-0.059568 C 1.1662863,1.1254923 1.2604975,1.0590789 1.3390916,1.02968 l 0.053882,-0.020155 2.5847457,-0.00194 c 2.1632631,-0.00162 2.5923463,-4.75e-5 2.631356,0.00966 0.03982,0.00991 -0.2793322,0.01174 -2.190678,0.012592 -1.276338,5.69e-4 -2.353767,0.00463 -2.5084746,0.00945 -0.3961851,0.012354 -0.5607856,0.03187 -0.6506822,0.077151 -0.034029,0.01714 -0.050351,0.028971 -0.1438093,0.1042355 -0.02214,0.01783 -0.040254,0.029043 -0.040254,0.024919 z"
     id="path3362"
     inkscape:connector-curvature="0" />
  <path
     style="fill:#f9f9f9"
     d="m 1.0089895,2.8569827 c -0.00109,-1.2209246 5.095e-4,-1.4384543 0.010865,-1.4745763 0.013054,-0.045533 0.013225,-0.1444886 -0.00366,2.1144068 -0.00562,0.7515701 -0.00599,0.7186225 -0.00721,-0.6398305 z"
     id="path3364"
     inkscape:connector-curvature="0" />
  <path
     style="fill:#f9f9f9"
     d="m 6.7626982,6.905719 c 0.0064,-0.00815 0.029594,-0.036771 0.051549,-0.063596 C 6.8955068,6.7428397 6.9162066,6.6881909 6.9354138,6.5222369 6.9627436,6.2861011 6.9665707,6.0458028 6.9708432,4.2976606 6.9760712,2.1585384 6.9675841,1.6071354 6.9261029,1.390881 6.9065999,1.289206 6.8841341,1.2486276 6.7927435,1.150003 6.7477226,1.1014184 6.7125954,1.0599593 6.714683,1.0578717 c 0.00678,-0.00678 0.076741,0.038606 0.1213496,0.078713 0.058036,0.052179 0.1073464,0.1292902 0.1355203,0.2119236 l 0.023115,0.067797 0,2.5805085 c 0,2.479417 -6.093e-4,2.582483 -0.015554,2.6309129 -0.0338,0.1095314 -0.098006,0.2065453 -0.1732506,0.26178 -0.045904,0.033697 -0.061472,0.039544 -0.043165,0.016213 z"
     id="path3366"
     inkscape:connector-curvature="0" />
  <path
     style="fill:#f9f9f9"
     d="M 9.4226342,6.9909585 C 9.2364966,6.9597998 9.0686089,6.8066437 9.0198829,6.6235476 9.0097965,6.5856463 9.0078083,6.4979617 9.0088427,6.1366437 c 0.00117,-0.4089795 0.00171,-0.4242 0.00754,-0.2115986 0.00943,0.3443119 0.030549,0.5798513 0.064134,0.7154242 0.04395,0.1774108 0.1390342,0.2741077 0.2912715,0.2962121 0.2612658,0.037935 0.8800843,0.046155 3.0105933,0.039991 1.663868,-0.00481 1.870763,-0.004 1.870763,0.00736 0,0.011359 -0.266895,0.012649 -2.404661,0.011623 -1.322564,-6.347e-4 -2.4141953,-0.00275 -2.4258478,-0.0047 z"
     id="path3370"
     inkscape:connector-curvature="0" />
  <path
     style="fill:#f9f9f9"
     d="m 9.0751766,9.2455928 c 0,-0.00412 0.018959,-0.03093 0.04213,-0.059568 C 9.1662863,9.1254923 9.2604975,9.0590789 9.3390916,9.02968 l 0.053882,-0.020155 2.4300848,-0.00219 c 2.161481,-0.00195 2.430085,-7.776e-4 2.430085,0.010593 0,0.01136 -0.226801,0.012791 -2.036017,0.012844 -1.166009,3.46e-5 -2.151898,0.00367 -2.3072037,0.00852 -0.3961851,0.012354 -0.5607856,0.03187 -0.6506822,0.077151 -0.034029,0.01714 -0.050351,0.028971 -0.1438093,0.1042355 -0.02214,0.01783 -0.040254,0.029043 -0.040254,0.024919 z"
     id="path3372"
     inkscape:connector-curvature="0" />
  <path
     style="fill:#f9f9f9"
     d="m 9.4284874,14.996447 c -0.214543,-0.03604 -0.381715,-0.195849 -0.4207136,-0.402176 -0.00707,-0.03739 -0.00895,-0.731664 -0.00712,-2.622882 0.00238,-2.460277 0.00316,-2.5740029 0.017897,-2.6173609 0.00847,-0.02493 0.016738,-0.043996 0.018365,-0.042369 0.00163,0.00163 -0.00232,0.6684225 -0.00877,1.4817683 -0.013869,1.748452 -0.015211,2.856029 -0.00385,3.177962 0.023356,0.661765 0.071524,0.842143 0.2484832,0.930521 0.069716,0.03482 0.2100608,0.04725 0.6964674,0.06169 0.3568716,0.01059 2.3142556,0.01234 3.4978816,0.0031 l 0.786017,-0.0061 0,0.02235 0,0.02235 -2.391949,-9.97e-4 c -1.315573,-5.48e-4 -2.4102903,-0.0041 -2.4327066,-0.0078 z"
     id="path3374"
     inkscape:connector-curvature="0" />
  <path
     style="fill:#f9f9f9"
     d="m 14.240431,9.0227836 c 0.01695,-0.00674 0.01695,-0.00674 0,-0.011133 -0.0093,-0.00242 0.06123,-0.00447 0.156779,-0.00457 0.114425,-1.116e-4 0.188194,0.00355 0.216102,0.010722 0.03782,0.00972 0.01913,0.010936 -0.173729,0.011303 -0.118856,2.261e-4 -0.208474,-0.00262 -0.199152,-0.00633 z"
     id="path3376"
     inkscape:connector-curvature="0" />
  <path
     style="fill:#f9f9f9"
     d="m 14.762698,14.905719 c 0.0064,-0.0082 0.02959,-0.03677 0.05155,-0.06359 0.08126,-0.09928 0.10196,-0.153933 0.121167,-0.319887 0.02733,-0.236136 0.03116,-0.476434 0.03543,-2.224576 0.0052,-2.139123 -0.0033,-2.6905256 -0.04474,-2.90678 -0.0195,-0.101675 -0.04197,-0.1422534 -0.133359,-0.240878 -0.04502,-0.048585 -0.08015,-0.090044 -0.07806,-0.092131 0.0068,-0.00678 0.07674,0.038606 0.12135,0.078713 0.05804,0.052179 0.107346,0.1292902 0.13552,0.2119236 l 0.02312,0.067797 0,2.5805083 c 0,2.479417 -6.09e-4,2.582483 -0.01555,2.630913 -0.0338,0.109532 -0.09801,0.206545 -0.173251,0.26178 -0.0459,0.0337 -0.06147,0.03954 -0.04317,0.01621 z"
     id="path3378"
     inkscape:connector-curvature="0" />
  <path
     style="fill:#f9f9f9"
     d="m 14.253143,14.984971 c 0,-0.012 0.01956,-0.01358 0.168308,-0.01358 0.09257,0 0.186956,-0.0019 0.209746,-0.0041 l 0.04144,-0.0041 -0.03814,0.01383 c -0.02881,0.01045 -0.08008,0.01478 -0.209746,0.01772 -0.153397,0.0035 -0.17161,0.0024 -0.17161,-0.0097 z"
     id="path3380"
     inkscape:connector-curvature="0" />
  <path
     style="fill:#f9f9f9"
     d="m 14.762698,6.905719 c 0.0064,-0.00815 0.02959,-0.036771 0.05155,-0.063596 0.08126,-0.099284 0.10196,-0.1539326 0.121167,-0.3198866 0.02733,-0.2361358 0.03116,-0.4764341 0.03543,-2.2245763 0.0052,-2.1391222 -0.0033,-2.6905252 -0.04474,-2.9067796 -0.0195,-0.101675 -0.04197,-0.1422534 -0.133359,-0.240878 -0.04502,-0.048585 -0.08015,-0.090044 -0.07806,-0.092131 0.0068,-0.00678 0.07674,0.038606 0.12135,0.078713 0.05804,0.052179 0.107346,0.1292902 0.13552,0.2119236 l 0.02312,0.067797 0,2.5805085 c 0,2.479417 -6.09e-4,2.582483 -0.01555,2.6309129 -0.0338,0.1095314 -0.09801,0.2065453 -0.173251,0.26178 -0.0459,0.033697 -0.06147,0.039544 -0.04317,0.016213 z"
     id="path3382"
     inkscape:connector-curvature="0" />
  <path
     style="fill:#f9f9f9"
     d="m 14.236194,6.9907927 c 0.01982,-0.00427 0.02009,-0.00501 0.0042,-0.011389 -0.0094,-0.00378 0.06461,-0.00709 0.16619,-0.00742 0.100726,-3.276e-4 0.201786,-0.00246 0.224576,-0.00473 l 0.04144,-0.00413 -0.03814,0.0139 c -0.03028,0.011037 -0.07742,0.014357 -0.228814,0.016119 -0.104873,0.00122 -0.181144,1.648e-4 -0.169491,-0.00235 z"
     id="path3386"
     inkscape:connector-curvature="0" />
  <path
     style="fill:#f9f9f9"
     d="m 9.0751766,1.2455927 c 0,-0.00412 0.018959,-0.03093 0.04213,-0.059568 C 9.1662863,1.1254923 9.2604975,1.0590789 9.3390916,1.02968 l 0.053882,-0.020155 2.5847458,-0.00194 c 2.163263,-0.00162 2.592346,-4.75e-5 2.631356,0.00966 0.03982,0.00991 -0.279332,0.01174 -2.190678,0.012592 -1.276338,5.69e-4 -2.353767,0.00463 -2.5084747,0.00945 -0.3961851,0.012354 -0.5607856,0.03187 -0.6506822,0.077151 -0.034029,0.01714 -0.050351,0.028971 -0.1438093,0.1042355 -0.02214,0.01783 -0.040254,0.029043 -0.040254,0.024919 z"
     id="path3388"
     inkscape:connector-curvature="0" />
  <path
     style="fill:#f9f9f9"
     d="m 9.0033648,6.5709657 c -0.00288,-0.02447 -0.00411,-1.1980932 -0.00273,-2.6080508 0.0024,-2.4520611 0.00318,-2.5655308 0.017913,-2.6088868 0.00847,-0.02493 0.01681,-0.043924 0.018525,-0.042209 0.00172,0.00171 -0.00265,0.7219005 -0.0097,1.6004121 -0.010986,1.3687254 -0.011053,2.8861274 -1.435e-4,3.2413618 0.00157,0.051271 0.00142,0.059852 -3.369e-4,0.019068 -0.00202,-0.04677 -0.00667,-0.074153 -0.012608,-0.074153 -0.00682,0 -0.00773,0.071032 -0.00329,0.2584746 0.00587,0.2477406 0.00365,0.3098801 -0.00763,0.213983 z"
     id="path3390"
     inkscape:connector-curvature="0" />
</svg>
