<?xml version="1.0" encoding="UTF-8" standalone="no"?>
<svg
   xmlns:dc="http://purl.org/dc/elements/1.1/"
   xmlns:cc="http://creativecommons.org/ns#"
   xmlns:rdf="http://www.w3.org/1999/02/22-rdf-syntax-ns#"
   xmlns:svg="http://www.w3.org/2000/svg"
   xmlns="http://www.w3.org/2000/svg"
   xmlns:sodipodi="http://sodipodi.sourceforge.net/DTD/sodipodi-0.dtd"
   xmlns:inkscape="http://www.inkscape.org/namespaces/inkscape"
   height="16"
   width="16"
   version="1.0"
   id="svg2"
   inkscape:version="0.91 r13725"
   sodipodi:docname="home.svg">
  <metadata
     id="metadata12">
    <rdf:RDF>
      <cc:Work
         rdf:about="">
        <dc:format>image/svg+xml</dc:format>
        <dc:type
           rdf:resource="http://purl.org/dc/dcmitype/StillImage" />
      </cc:Work>
    </rdf:RDF>
  </metadata>
  <defs
     id="defs10" />
  <sodipodi:namedview
     pagecolor="#ffffff"
     bordercolor="#666666"
     borderopacity="1"
     objecttolerance="10"
     gridtolerance="10"
     guidetolerance="10"
     inkscape:pageopacity="0"
     inkscape:pageshadow="2"
     inkscape:window-width="958"
     inkscape:window-height="1180"
     id="namedview8"
     showgrid="false"
     inkscape:zoom="83.4386"
     inkscape:cx="5.8661941"
     inkscape:cy="3.3620326"
     inkscape:window-x="0"
     inkscape:window-y="18"
     inkscape:window-maximized="0"
     inkscape:current-layer="svg2" />
  <rect
     style="color:#000000"
     fill-opacity="0"
     height="97.986"
     width="163.31"
     y="-32.993"
     x="-62.897"
     id="rect4" />
  <path
     opacity=".5"
     d="m8 1.0306-8 7.9694h3v6.0001h10v-6h3l-3-3.0306v-3.9695h-3v1.0812l-2-2.0505z"
     fill-rule="evenodd"
     id="path6" />
  <path
     style="fill:#f9f9f9"
     d="m 3.0372881,11.979661 0,-3.0169491 -1.4745035,0 -1.47450352,0 3.95359822,-3.9491526 3.953598,-3.9491525 0.9725213,1 c 0.5348868,0.55 0.9904807,1 1.0124306,1 0.021951,0 0.03991,-0.2288136 0.03991,-0.5084746 l 0,-0.5084746 1.491525,0 1.491526,0 0,1.9824857 0,1.9824856 1.473998,1.4751415 1.473998,1.4751415 -1.473998,0 -1.473998,0 0,3.0169491 0,3.016949 -4.983051,0 -4.9830509,0 0,-3.016949 z"
     id="path3340"
     inkscape:connector-curvature="0" />
  <path
     style="fill:#f9f9f9"
     d="m 2.9994154,11.993228 0,-2.9961681 -1.491317,-0.00304 L 0.01678158,8.9909743 3.7379688,5.2833447 C 5.7846216,3.2441486 7.4616222,1.5781815 7.4646365,1.5811959 7.467651,1.5842103 5.808937,3.2438163 3.7786057,5.2692093 1.7482744,7.2946023 0.08709424,8.9565245 0.08709424,8.9623695 c 0,0.00612 0.62489513,0.010628 1.47413786,0.010628 l 1.4741379,0 0,3.0082 c 0,2.665965 -0.00205,3.0082 -0.017977,3.0082 -0.015932,0 -0.017977,-0.340897 -0.017977,-2.996169 z"
     id="path3342"
     inkscape:connector-curvature="0" />
  <path
     style="fill:#f9f9f9"
     d="m 12.994789,8.9850753 c 0,-0.0237 0.01096,-0.023899 1.480986,-0.026966 1.336549,-0.00279 1.482655,-0.00124 1.498107,0.015831 0.0094,0.010407 0.01712,0.022541 0.01712,0.026966 0,0.00442 -0.674148,0.00804 -1.498107,0.00804 -1.488164,0 -1.498108,-1.584e-4 -1.498108,-0.023876 z"
     id="path3344"
     inkscape:connector-curvature="0" />
  <path
     style="fill:#f9f9f9"
     d="M 14.086404,7.0983588 C 13.490966,6.502894 13.005948,6.0092225 13.008585,6.0013111 c 0.0026,-0.00791 0.492122,0.4769784 1.087745,1.0775327 0.595622,0.6005543 1.080641,1.0942258 1.077819,1.0970476 -0.0028,0.00282 -0.492307,-0.4820677 -1.087745,-1.0775326 z"
     id="path3346"
     inkscape:connector-curvature="0" />
  <path
     style="fill:#f9f9f9"
     d="m 10.010559,2.0277702 c 0,-0.015884 0.17378,-0.017977 1.492115,-0.017977 1.318335,0 1.492115,0.00209 1.492115,0.017977 0,0.015884 -0.17378,0.017977 -1.492115,0.017977 -1.318335,0 -1.492115,-0.00209 -1.492115,-0.017977 z"
     id="path3348"
     inkscape:connector-curvature="0" />
  <path
     style="fill:#f9f9f9"
     d="M 9.2901648,2.3838671 C 8.7701292,1.8595269 8.1493617,1.2183409 8.1556583,1.2120443 c 0.00343,-0.00343 0.3257833,0.3205003 0.7163388,0.719847 0.3905556,0.3993467 0.7078333,0.7283526 0.7050616,0.7311242 -0.00277,0.00277 -0.1318738,-0.1228452 -0.2868939,-0.2791484 z"
     id="path3350"
     inkscape:connector-curvature="0" />
  <path
     style="fill:#f9f9f9"
     d="m 2.9994154,11.166226 0,-2.1572745 -0.5932506,0 -0.5932506,0 7.251e-4,-0.9138456 7.251e-4,-0.9138456 3.0867899,-3.0741168 c 1.6977345,-1.6907642 3.0906756,-3.075624 3.0954248,-3.0774662 0.00475,-0.00184 0.4529744,0.4525339 0.9960561,1.0097246 0.5430819,0.5571906 0.9915879,1.0130739 0.9966802,1.0130739 0.00509,0 0.00926,-0.2373003 0.00926,-0.5273339 l 0,-0.5273339 1.5040999,0 1.5041,0 5.48e-4,1.9864907 5.48e-4,1.9864907 1.497043,1.5100924 c 0.823373,0.8305508 1.497274,1.5141373 1.497559,1.5190811 2.87e-4,0.00494 -0.673632,0.00899 -1.497592,0.00899 l -1.498107,0 0,2.1572745 0,2.157275 -5.0036789,0 -5.0036793,0 0,-2.157275 6e-7,0 z"
     id="path3352"
     inkscape:connector-curvature="0" />
  <path
     style="fill:#f9f9f9"
     d="m 0.58746218,8.9640136 c 0.22576481,-0.00182 0.59519812,-0.00182 0.82096292,0 0.2257648,0.00182 0.041048,0.00332 -0.41048144,0.00332 -0.45152963,0 -0.6362463,-0.00149 -0.41048148,-0.00332 z"
     id="path3354"
     inkscape:connector-curvature="0" />
</svg>
