<?xml version="1.0" encoding="UTF-8" standalone="no"?>
<svg
   xmlns:dc="http://purl.org/dc/elements/1.1/"
   xmlns:cc="http://creativecommons.org/ns#"
   xmlns:rdf="http://www.w3.org/1999/02/22-rdf-syntax-ns#"
   xmlns:svg="http://www.w3.org/2000/svg"
   xmlns="http://www.w3.org/2000/svg"
   xmlns:sodipodi="http://sodipodi.sourceforge.net/DTD/sodipodi-0.dtd"
   xmlns:inkscape="http://www.inkscape.org/namespaces/inkscape"
   height="16"
   width="16"
   version="1.1"
   id="svg2"
   inkscape:version="0.91 r13725"
   sodipodi:docname="delete.svg">
  <metadata
     id="metadata10">
    <rdf:RDF>
      <cc:Work
         rdf:about="">
        <dc:format>image/svg+xml</dc:format>
        <dc:type
           rdf:resource="http://purl.org/dc/dcmitype/StillImage" />
      </cc:Work>
    </rdf:RDF>
  </metadata>
  <defs
     id="defs8" />
  <sodipodi:namedview
     pagecolor="#ffffff"
     bordercolor="#666666"
     borderopacity="1"
     objecttolerance="10"
     gridtolerance="10"
     guidetolerance="10"
     inkscape:pageopacity="0"
     inkscape:pageshadow="2"
     inkscape:window-width="958"
     inkscape:window-height="1180"
     id="namedview6"
     showgrid="false"
     inkscape:zoom="83.4386"
     inkscape:cx="9.8648215"
     inkscape:cy="13.997132"
     inkscape:window-x="0"
     inkscape:window-y="18"
     inkscape:window-maximized="0"
     inkscape:current-layer="svg2" />
  <path
     d="m6.5 1-0.5 1h-3c-0.554 0-1 0.446-1 1v1h12v-1c0-0.554-0.446-1-1-1h-3l-0.5-1zm-3.5 4 0.875 9c0.061 0.549 0.5729 1 1.125 1h6c0.55232 0 1.064-0.45102 1.125-1l0.875-9z"
     fill-rule="evenodd"
     id="path4" />
  <path
     style="fill:#f9f9f9"
     d="M 4.7053778,14.926208 C 4.4758708,14.857529 4.1501671,14.565152 4.0150291,14.306498 3.9528963,14.187576 3.7677162,12.563012 3.4787088,9.6014222 3.2359274,7.1135313 3.0372881,5.0673022 3.0372881,5.0542464 c 0,-0.013056 2.2271187,-0.023738 4.9491526,-0.023738 l 4.9491523,0 4.07e-4,0.1525423 c 0.001,0.3984899 -0.82627,8.7282122 -0.890157,8.9627182 -0.09313,0.341861 -0.431082,0.680354 -0.774431,0.775678 -0.32396,0.08994 -6.2669679,0.09425 -6.5660173,0.0048 l -1.69e-5,1e-6 z"
     id="path3338"
     inkscape:connector-curvature="0" />
  <path
     style="fill:#f9f9f9"
     d="M 2.0204443,3.3864407 C 2.0205676,2.7319702 2.1375468,2.4354641 2.4879921,2.2013514 2.711747,2.0518734 2.7657462,2.0474576 4.369903,2.0474576 l 1.651546,0 0.2515999,-0.5084745 0.2516,-0.5084746 1.4772136,0 1.4772134,0 0.2500251,0.5052915 0.2500251,0.5052915 1.7145099,0.020132 1.71451,0.020132 0.255249,0.2552329 0.255249,0.2552329 0.0233,0.6769705 0.0233,0.6769705 -5.9724543,0 -5.9724547,0 1.053e-4,-0.559322 z"
     id="path3340"
     inkscape:connector-curvature="0" />
  <path
     style="fill:#f9f9f9"
     d="m 2.2877534,2.331434 c 0,-0.047253 0.1561465,-0.1686765 0.3035207,-0.2360243 0.1968315,-0.089949 0.058839,-0.083362 1.8269353,-0.087209 l 1.5851448,-0.00345 0.2484717,-0.4971155 0.2484715,-0.4971155 1.4982421,0 1.498242,0 0.2485997,0.4973717 0.2485997,0.4973717 1.5490621,1.575e-4 c 1.472816,1.497e-4 1.554371,0.00127 1.656926,0.022816 0.209778,0.044067 0.190843,0.049761 -0.143818,0.043246 -0.171384,-0.00334 -0.932468,-0.012501 -1.691299,-0.020367 L 9.9851597,2.0368167 9.734911,1.5304675 9.4846622,1.0241184 8.0044662,1.0233125 6.5242703,1.0225066 6.2702209,1.5307734 6.0161715,2.0390401 l -1.5076594,0.0055 c -1.0273304,0.00375 -1.5458424,0.00991 -1.6275081,0.019327 -0.2176959,0.025111 -0.3423119,0.0788 -0.5109308,0.2201254 -0.061665,0.051684 -0.08232,0.063586 -0.08232,0.047439 z"
     id="path3342"
     inkscape:connector-curvature="0" />
  <path
     style="fill:#f9f9f9"
     d="M 13.66695,2.328427 C 13.561873,2.2231964 13.482248,2.1370987 13.490005,2.1370987 c 0.03068,0 0.211967,0.1509142 0.271489,0.2260053 0.0702,0.088558 0.107869,0.1452857 0.101027,0.1521282 -0.0025,0.00249 -0.09049,-0.081575 -0.195571,-0.1868052 z"
     id="path3344"
     inkscape:connector-curvature="0" />
  <path
     style="fill:#f9f9f9"
     d="m 2.2877534,3.9707824 c 0,-0.023937 0.00799,-0.02397 5.8429567,-0.02397 l 5.8429569,0 -0.0069,-0.1408222 c -0.01301,-0.2657336 -0.04137,-1.1459032 -0.03706,-1.1502123 0.0024,-0.00237 0.01674,0.037708 0.03194,0.089063 0.02684,0.090702 0.02776,0.109908 0.03229,0.6716415 l 0.0047,0.5782695 -5.8554246,0 c -5.8474351,0 -5.855425,-3.27e-5 -5.855425,-0.02397 z"
     id="path3348"
     inkscape:connector-curvature="0" />
  <path
     style="fill:#f9f9f9"
     d="M 4.858506,14.983898 C 4.7489658,14.968614 4.5649529,14.904764 4.4629984,14.846663 4.172041,14.680854 3.9567679,14.39248 3.8951607,14.086005 3.8857214,14.039048 3.006845,5.0570755 3.006845,5.0075651 c 0,-0.00986 9.983336,-0.00695 9.983941,0.0029 0.002,0.033179 -0.294922,3.0467659 -0.297793,3.0220571 -0.002,-0.017098 0.02086,-0.2867569 0.05076,-0.599243 0.135298,-1.413701 0.198538,-2.1489839 0.198538,-2.3083984 l 0,-0.099435 -4.0418947,0.00117 c -3.8613432,0.00111 -5.8478623,0.00906 -5.8622487,0.023454 -0.00365,0.00365 0.01762,0.2571337 0.047272,0.5632885 0.5426258,5.6025148 0.6777766,6.9323648 0.8147789,8.0172208 0.053897,0.426786 0.085798,0.616498 0.114789,0.682649 0.058723,0.13399 0.2755662,0.371875 0.4470301,0.490408 0.1496839,0.103476 0.2209801,0.130114 0.3858261,0.144152 0.1556685,0.01326 0.9796909,0.03671 1.4368566,0.04089 0.1582002,0.0014 -0.081797,0.0032 -0.5333263,0.0039 -0.4515296,7.19e-4 -0.8533221,-0.0032 -0.8928721,-0.0087 z"
     id="path3350"
     inkscape:connector-curvature="0" />
  <path
     style="fill:#f9f9f9"
     d="m 2.0090718,3.9707824 c 0,-0.022973 0.00735,-0.02389 0.1767767,-0.022052 0.097227,0.00105 0.1592488,0.00409 0.1378259,0.00675 -0.050211,0.00623 -0.050211,0.024369 0,0.0306 0.021423,0.00266 -0.040599,0.0057 -0.1378259,0.00675 -0.1694262,0.00184 -0.1767767,9.213e-4 -0.1767767,-0.022052 z"
     id="path3352"
     inkscape:connector-curvature="0" />
  <path
     style="fill:#f9f9f9"
     d="m 2.0114087,3.4098598 c -0.00199,-0.4617731 5.46e-4,-0.5556206 0.016946,-0.627728 0.03526,-0.1550282 0.1134032,-0.3132538 0.2078077,-0.4207746 0.029904,-0.034058 0.041724,-0.040622 0.053442,-0.029675 0.011894,0.011111 0.00317,0.028799 -0.04166,0.084427 -0.097169,0.120585 -0.1591203,0.2709661 -0.1985792,0.4820288 -0.015623,0.083564 -0.021906,0.2145118 -0.027893,0.5812658 l -0.00773,0.473402 -0.00234,-0.5429453 z"
     id="path3354"
     inkscape:connector-curvature="0" />
  <path
     style="fill:#f9f9f9"
     d="m 9.8144851,14.984129 c 0.6647439,-0.01002 1.2474949,-0.03005 1.3874299,-0.04767 0.302841,-0.03814 0.661149,-0.339214 0.811158,-0.681579 0.04139,-0.09447 0.05051,-0.154778 0.125866,-0.832298 0.103623,-0.931694 0.410025,-3.9441377 0.517035,-5.0833129 0.01486,-0.1582002 0.03129,-0.2925644 0.03651,-0.2985871 0.0052,-0.00602 0.0069,0.00746 0.0037,0.029962 -0.0032,0.022502 -0.135175,1.3750893 -0.293299,3.0057499 -0.158124,1.63066 -0.295562,2.999607 -0.305418,3.042104 -0.04395,0.189522 -0.15453,0.382858 -0.304109,0.531711 -0.149921,0.149194 -0.328816,0.253604 -0.534679,0.31206 l -0.09588,0.02722 -0.982759,0.002 c -0.941088,0.0019 -0.9565873,0.0016 -0.3655379,-0.0073 z"
     id="path3356"
     inkscape:connector-curvature="0" />
</svg>
