<?xml version="1.0" encoding="UTF-8" standalone="no"?>
<svg
   xmlns:dc="http://purl.org/dc/elements/1.1/"
   xmlns:cc="http://creativecommons.org/ns#"
   xmlns:rdf="http://www.w3.org/1999/02/22-rdf-syntax-ns#"
   xmlns:svg="http://www.w3.org/2000/svg"
   xmlns="http://www.w3.org/2000/svg"
   xmlns:sodipodi="http://sodipodi.sourceforge.net/DTD/sodipodi-0.dtd"
   xmlns:inkscape="http://www.inkscape.org/namespaces/inkscape"
   height="16"
   width="16"
   version="1.1"
   id="svg2"
   inkscape:version="0.91 r13725"
   sodipodi:docname="external.svg">
  <metadata
     id="metadata10">
    <rdf:RDF>
      <cc:Work
         rdf:about="">
        <dc:format>image/svg+xml</dc:format>
        <dc:type
           rdf:resource="http://purl.org/dc/dcmitype/StillImage" />
      </cc:Work>
    </rdf:RDF>
  </metadata>
  <defs
     id="defs8" />
  <sodipodi:namedview
     pagecolor="#ffffff"
     bordercolor="#666666"
     borderopacity="1"
     objecttolerance="10"
     gridtolerance="10"
     guidetolerance="10"
     inkscape:pageopacity="0"
     inkscape:pageshadow="2"
     inkscape:window-width="958"
     inkscape:window-height="1180"
     id="namedview6"
     showgrid="false"
     inkscape:zoom="14.75"
     inkscape:cx="8"
     inkscape:cy="8"
     inkscape:window-x="0"
     inkscape:window-y="18"
     inkscape:window-maximized="0"
     inkscape:current-layer="svg2" />
  <path
     d="m7.4515 1.6186 2.3806 2.2573-3.5709 3.386 2.3806 2.2573 3.5709-3.386 2.3806 2.2573v-6.7725h-7.1422zm-4.7612 1.1286c-0.65945 0-1.1903 0.5034-1.1903 1.1286v9.029c0 0.6253 0.53085 1.1286 1.1903 1.1286h9.522c0.6594 0 1.1903-0.5034 1.1903-1.1286v-3.386l-1.19-1.1287v4.5146h-9.5217v-9.029h4.761l-1.1905-1.1287h-3.5707z"
     id="path4" />
  <path
     style="fill:#f9f9f9"
     d="M 7.4871015,8.3778298 C 6.8668228,7.7922622 6.359322,7.2913431 6.359322,7.2646759 c 0,-0.026667 0.7779661,-0.7867855 1.7288136,-1.6891518 C 9.0389831,4.6731578 9.818189,3.9144303 9.8197044,3.889463 9.8212197,3.8644957 9.3102028,3.3492149 8.6841112,2.7443948 l -1.1383485,-1.099673 3.5084743,-0.00202 3.508475,-0.00202 0,3.3295888 0,3.3295889 -0.728814,-0.6778166 C 13.433051,7.24924 13.044068,6.8763419 12.969492,6.7933768 12.894915,6.7104117 12.6892,6.5212344 12.512346,6.3729831 L 12.190794,6.103435 10.453795,7.7534124 C 9.4984451,8.6608997 8.6938645,9.4121892 8.6658381,9.4229437 8.6378117,9.4336983 8.1073801,8.9633966 7.4871015,8.3778298 Z"
     id="path3338"
     inkscape:connector-curvature="0" />
  <path
     style="fill:#f9f9f9"
     d="M 2.2237636,13.903495 C 2.1305624,13.86633 1.9827484,13.769112 1.895288,13.687453 1.5334496,13.349618 1.5457627,13.537085 1.5457627,8.3659351 l 0,-4.8069001 0.1525424,-0.2241312 C 1.7822034,3.2116316 1.9369215,3.0469504 2.0421232,2.9689456 2.2244534,2.8337516 2.3267957,2.8261903 4.2304374,2.8072684 l 1.9970386,-0.01985 0.5449862,0.4944265 0.5449863,0.4944265 -2.3265209,0.033898 -2.3265208,0.033898 0,4.5423729 0,4.5423733 4.7966101,0.0174 4.7966101,0.0174 0,-2.253102 0,-2.2531017 0.544838,0.5407824 0.544839,0.5407824 -0.01941,1.9109099 -0.01941,1.910909 -0.20339,0.213787 c -0.406943,0.427746 -0.09349,0.405475 -5.6407013,0.400774 -3.2005297,-0.0027 -5.133672,-0.02922 -5.2406201,-0.07187 z"
     id="path3340"
     inkscape:connector-curvature="0" />
</svg>
