<?xml version="1.0" encoding="UTF-8" standalone="no"?>
<svg
   xmlns:dc="http://purl.org/dc/elements/1.1/"
   xmlns:cc="http://creativecommons.org/ns#"
   xmlns:rdf="http://www.w3.org/1999/02/22-rdf-syntax-ns#"
   xmlns:svg="http://www.w3.org/2000/svg"
   xmlns="http://www.w3.org/2000/svg"
   xmlns:sodipodi="http://sodipodi.sourceforge.net/DTD/sodipodi-0.dtd"
   xmlns:inkscape="http://www.inkscape.org/namespaces/inkscape"
   height="16"
   width="16"
   version="1.1"
   id="svg2"
   inkscape:version="0.91 r13725"
   sodipodi:docname="public.svg">
  <metadata
     id="metadata14">
    <rdf:RDF>
      <cc:Work
         rdf:about="">
        <dc:format>image/svg+xml</dc:format>
        <dc:type
           rdf:resource="http://purl.org/dc/dcmitype/StillImage" />
      </cc:Work>
    </rdf:RDF>
  </metadata>
  <defs
     id="defs12" />
  <sodipodi:namedview
     pagecolor="#ffffff"
     bordercolor="#666666"
     borderopacity="1"
     objecttolerance="10"
     gridtolerance="10"
     guidetolerance="10"
     inkscape:pageopacity="0"
     inkscape:pageshadow="2"
     inkscape:window-width="958"
     inkscape:window-height="1180"
     id="namedview10"
     showgrid="false"
     inkscape:zoom="14.75"
     inkscape:cx="8"
     inkscape:cy="8"
     inkscape:window-x="0"
     inkscape:window-y="18"
     inkscape:window-maximized="0"
     inkscape:current-layer="svg2" />
  <g
     transform="matrix(.67042 -.67042 .67042 .67042 .62542 93.143)"
     id="g4">
    <path
       style="block-progression:tb;color:#000000;text-transform:none;text-indent:0"
       d="m69.5-61.5c-1.9217 0-3.5 1.5783-3.5 3.5 0 0.17425 0.0062 0.33232 0.03125 0.5h2.0625c-0.053-0.156-0.094-0.323-0.094-0.5 0-0.8483 0.6517-1.5 1.5-1.5h5c0.8483 0 1.5 0.6517 1.5 1.5s-0.6517 1.5-1.5 1.5h-1.6875c-0.28733 0.79501-0.78612 1.4793-1.4375 2h3.125c1.9217 0 3.5-1.5783 3.5-3.5s-1.5783-3.5-3.5-3.5h-5z"
       id="path6" />
    <path
       style="block-progression:tb;color:#000000;text-transform:none;text-indent:0"
       d="m68.5-54.5c1.9217 0 3.5-1.5783 3.5-3.5 0-0.17425-0.0062-0.33232-0.03125-0.5h-2.0625c0.053 0.156 0.094 0.323 0.094 0.5 0 0.8483-0.6517 1.5-1.5 1.5h-5c-0.8483 0-1.5-0.6517-1.5-1.5s0.6517-1.5 1.5-1.5h1.6875c0.28733-0.79501 0.78612-1.4793 1.4375-2h-3.125c-1.9217 0-3.5 1.5783-3.5 3.5s1.5783 3.5 3.5 3.5h5z"
       id="path8" />
  </g>
  <path
     style="fill:#f9f9f9"
     d="M 5.9731671,9.9352088 C 4.9195671,8.803819 4.768933,7.1454963 5.6041823,5.8730759 5.9833799,5.2954057 9.681338,1.6545711 10.127907,1.4192304 c 1.858584,-0.97946806 4.1916,0.032639 4.717295,2.0464518 0.210551,0.806572 0.139142,1.5181491 -0.231877,2.310589 -0.172347,0.3681085 -0.402838,0.639596 -1.399654,1.6486069 l -1.193332,1.2079287 -0.0436,-0.6067824 C 11.952759,7.692294 11.864496,7.2017466 11.780599,6.9359191 L 11.62806,6.4525963 12.305649,5.7561513 C 13.055812,4.9851132 13.172702,4.7600683 13.12456,4.179534 13.067418,3.4904727 12.509527,2.9325826 11.820466,2.8754403 11.143563,2.8193062 11.099326,2.851434 9.0526044,4.8856619 7.8530889,6.0778553 7.1209917,6.8576001 7.0356553,7.0338816 6.8781299,7.3592856 6.8589779,7.9173898 6.9944005,8.2360759 7.0962559,8.4757688 7.344235,8.763758 7.5495005,8.8807376 7.6703136,8.9495885 7.6275303,9.0101058 7.0386271,9.6033647 6.6851263,9.95948 6.3669195,10.250847 6.3315009,10.250847 c -0.035419,0 -0.1966689,-0.142037 -0.3583338,-0.3156382 z"
     id="path3342"
     inkscape:connector-curvature="0" />
  <path
     style="fill:#f9f9f9"
     d="M 3.8781091,14.927131 C 3.1541254,14.824925 2.612335,14.565123 2.0749652,14.062476 1.0239901,13.079412 0.75093801,11.585344 1.3794767,10.256951 1.5879659,9.8163165 1.7606754,9.6094862 2.7848598,8.5739178 3.9423488,7.4035631 3.9526864,7.395224 3.9690487,7.618662 4.0077999,8.1478376 4.145617,8.8852005 4.2644553,9.1991753 l 0.1279916,0.3381582 -0.63679,0.6448925 c -0.8569679,0.867872 -1.0069162,1.193749 -0.8500909,1.84747 0.063599,0.265109 0.1597883,0.425166 0.3996802,0.665058 0.4791066,0.479106 1.0679262,0.580678 1.6642453,0.287082 C 5.2555042,12.841019 8.7815044,9.3211416 8.9384393,9.0197807 9.2607966,8.4007601 9.1658854,7.8103473 8.666198,7.326243 L 8.3416414,7.0118081 8.997642,6.3582687 9.6536427,5.7047293 10.011127,6.0625342 c 0.444504,0.4449023 0.790076,1.1380569 0.890697,1.7865764 0.09916,0.6390719 -0.0027,1.2694587 -0.311443,1.9271606 -0.223852,0.4768908 -0.365828,0.6354428 -2.2857152,2.5525618 -1.7058636,1.703404 -2.1163745,2.078626 -2.4630516,2.251318 -0.6391559,0.318387 -1.3172397,0.438214 -1.9635051,0.34698 z"
     id="path3344"
     inkscape:connector-curvature="0" />
  <path
     style="fill:#f9f9f9"
     d="m 3.9864407,7.680226 c 0,-0.071469 -0.033854,-0.1412281 -0.075231,-0.1550204 -0.047064,-0.015688 -0.034372,-0.058987 0.033898,-0.115646 0.096892,-0.080413 0.109129,-0.06303 0.109129,0.1550204 0,0.1350742 -0.015254,0.2455895 -0.033898,0.2455895 -0.018644,0 -0.033898,-0.058475 -0.033898,-0.1299435 z"
     id="path3346"
     inkscape:connector-curvature="0" />
  <path
     style="fill:#f9f9f9"
     d="M 3.2947591,14.865708 C 2.248638,14.531222 1.4480237,13.720203 1.1285939,12.671389 1.0149007,12.29809 0.99316526,12.077708 1.0141448,11.510956 1.0386148,10.849915 1.055666,10.779996 1.3233766,10.242957 1.5805912,9.7269727 1.7195237,9.5621439 2.8304739,8.4549437 3.5035437,7.7841457 4.0542373,7.2678335 4.0542373,7.3075831 c 0,0.03975 -0.4594282,0.5275675 -1.0209516,1.0840395 -1.2310041,1.2199301 -1.5212173,1.5839792 -1.7391916,2.1816744 -0.4472758,1.226451 -0.174105,2.450772 0.7538657,3.378743 1.0228537,1.022854 2.366509,1.248489 3.6974499,0.6209 0.3792512,-0.178831 0.6866992,-0.453118 2.3288086,-2.077621 1.0405309,-1.029375 2.0254707,-2.049182 2.1887567,-2.266239 0.369253,-0.4908524 0.63872,-1.2931245 0.63872,-1.9016306 0,-0.7827688 -0.332222,-1.5913293 -0.900914,-2.1926365 L 9.656021,5.7702803 9.0271688,6.3965179 C 8.5433647,6.8783102 8.4152814,7.0431968 8.4718664,7.1113778 c 0.085676,0.1032334 7.051e-4,0.115657 -0.1464427,0.021411 -0.0819,-0.052457 0.038234,-0.2053029 0.6172007,-0.7852598 L 9.66152,5.6274042 9.9207288,5.85438 c 1.1039202,0.9666461 1.3920402,2.8975329 0.6256752,4.193078 -0.206731,0.349481 -4.0269908,4.18032 -4.4320603,4.444334 C 5.5615369,14.852097 5.0393572,14.997186 4.3106132,14.992964 3.897293,14.990571 3.5486906,14.9469 3.2947591,14.865708 Z"
     id="path3348"
     inkscape:connector-curvature="0" />
  <path
     style="fill:#f9f9f9"
     d="M 5.9282423,9.9782759 C 5.7158953,9.7489159 5.4664427,9.4118434 5.3739033,9.2292258 4.7875481,8.0721092 4.907146,6.6658103 5.6794371,5.6365866 5.8596161,5.396464 6.8261304,4.3892939 7.8272465,3.3984309 9.4767824,1.7657891 9.6951356,1.5735438 10.155932,1.3481806 c 0.670264,-0.3278082 1.316549,-0.43767866 1.997489,-0.3395794 2.285569,0.3292694 3.528113,2.73048 2.500204,4.8316316 -0.212452,0.4342738 -0.412308,0.6729722 -1.433304,1.7118644 -0.652535,0.663974 -1.208279,1.2072248 -1.234987,1.2072248 -0.02671,0 -0.0637,-0.2974576 -0.0822,-0.6610169 -0.02352,-0.4620955 -0.08612,-0.8140334 -0.208018,-1.1694915 L 11.520736,6.420339 12.191559,5.7423729 C 12.560512,5.3694915 12.909363,4.9509799 12.966784,4.8123471 13.180121,4.297283 13.045641,3.7214211 12.619768,3.3263839 12.19173,2.9293378 11.68816,2.8261615 11.187653,3.0329582 10.876141,3.1616671 7.2934104,6.7080108 7.100446,7.0786551 6.8136323,7.6295645 6.9966506,8.3783092 7.5088117,8.7493166 L 7.7732625,8.9408841 7.0437953,9.6680895 6.3143279,10.395295 5.9282423,9.9782759 Z"
     id="path3350"
     inkscape:connector-curvature="0" />
  <path
     style="fill:#f9f9f9"
     d=""
     id="path3352"
     inkscape:connector-curvature="0" />
  <path
     style="fill:#f9f9f9"
     d="m 6.9672228,11.032784 c 0.4263493,-0.427563 0.7904236,-0.762143 0.809054,-0.743513 0.044326,0.04433 -1.4278666,1.520898 -1.5163876,1.520898 -0.037316,0 0.2809844,-0.349823 0.7073336,-0.777385 z"
     id="path3354"
     inkscape:connector-curvature="0" />
  <path
     style="fill:#f9f9f9"
     d=""
     id="path3356"
     inkscape:connector-curvature="0" />
  <path
     style="fill:#f9f9f9"
     d="M 3.2947591,14.865708 C 1.8715359,14.410648 0.99565826,13.19377 0.99725188,11.673725 0.99799352,10.96633 1.170155,10.366776 1.5226367,9.8440678 1.7623578,9.4885767 3.9560554,7.2 4.0570875,7.2 c 0.02656,0 0.032726,0.1380837 0.013704,0.3068528 -0.043237,0.3835989 0.090952,1.2389066 0.2692395,1.7161071 L 4.475257,9.584903 3.7632879,10.307706 c -0.7615393,0.773127 -0.9176303,1.063083 -0.83764,1.556006 0.060515,0.372908 0.3586259,0.807915 0.6845695,0.998931 0.3790955,0.222164 0.6753333,0.269478 1.0566385,0.168758 0.2676125,-0.07069 0.5251406,-0.300935 2.225305,-1.989568 C 9.1395593,8.8096769 9.2188814,8.6917441 8.9889729,7.924379 8.9080169,7.6541703 8.5242102,7.1862734 8.3254237,7.1154486 8.2534366,7.0898006 8.4377607,6.8641475 8.956398,6.3429979 L 9.6890671,5.6067797 10.06798,6.010394 c 1.086261,1.1570728 1.236008,2.9121455 0.359459,4.212933 -0.310474,0.46074 -3.814291,3.952856 -4.2715068,4.257242 -0.2050847,0.136533 -0.5667729,0.308497 -0.8037515,0.382142 -0.5641985,0.175333 -1.5141045,0.176717 -2.0574216,0.003 l 0,10e-7 z"
     id="path3358"
     inkscape:connector-curvature="0" />
</svg>
