<?xml version="1.0" encoding="UTF-8" standalone="no"?>
<svg
   xmlns:dc="http://purl.org/dc/elements/1.1/"
   xmlns:cc="http://creativecommons.org/ns#"
   xmlns:rdf="http://www.w3.org/1999/02/22-rdf-syntax-ns#"
   xmlns:svg="http://www.w3.org/2000/svg"
   xmlns="http://www.w3.org/2000/svg"
   xmlns:sodipodi="http://sodipodi.sourceforge.net/DTD/sodipodi-0.dtd"
   xmlns:inkscape="http://www.inkscape.org/namespaces/inkscape"
   height="16"
   width="16"
   version="1.0"
   id="svg2"
   inkscape:version="0.91 r13725"
   sodipodi:docname="recent.svg">
  <metadata
     id="metadata12">
    <rdf:RDF>
      <cc:Work
         rdf:about="">
        <dc:format>image/svg+xml</dc:format>
        <dc:type
           rdf:resource="http://purl.org/dc/dcmitype/StillImage" />
      </cc:Work>
    </rdf:RDF>
  </metadata>
  <defs
     id="defs10" />
  <sodipodi:namedview
     pagecolor="#ffffff"
     bordercolor="#666666"
     borderopacity="1"
     objecttolerance="10"
     gridtolerance="10"
     guidetolerance="10"
     inkscape:pageopacity="0"
     inkscape:pageshadow="2"
     inkscape:window-width="958"
     inkscape:window-height="1180"
     id="namedview8"
     showgrid="false"
     inkscape:zoom="32"
     inkscape:cx="6.7863082"
     inkscape:cy="8.3456637"
     inkscape:window-x="0"
     inkscape:window-y="18"
     inkscape:window-maximized="0"
     inkscape:current-layer="svg2" />
  <rect
     style="color:#000000"
     fill-opacity="0"
     height="97.986"
     width="163.31"
     y="-32.993"
     x="-62.897"
     id="rect4" />
  <path
     style="color-rendering:auto;text-decoration-color:#000000;color:#000000;isolation:auto;mix-blend-mode:normal;shape-rendering:auto;solid-color:#000000;block-progression:tb;text-decoration-line:none;text-decoration-style:solid;image-rendering:auto;white-space:normal;text-indent:0;text-transform:none"
     d="m8 0c-4.4064 0-8 3.5936-8 8 0 4.406 3.5936 8 8 8 4.406 0 8-3.594 8-8 0-4.4064-3.594-8-8-8zm0 2c3.326 0 6 2.6744 6 6 0 3.326-2.674 6-6 6-3.3256 0-6-2.674-6-6 0-3.3256 2.6744-6 6-6zm-0.4414 0.9316c-0.334 0.0075-0.6014 0.2793-0.6035 0.6133l-0.8516 4.4414v0.0117c-0.1821 0.7569 0.3361 1.002 0.916 1.3536l0.0059 0.0019 2.9976 1.5785c0.653 0.502 1.407-0.476 0.754-0.9789l-1.777-1.9453v-0.0078l-0.8086-4.4492c0.0011-0.3478-0.2851-0.6279-0.6328-0.6192z"
     id="path6" />
  <path
     style="fill:#f9f9f9"
     d="M 7.4196257,15.96723 C 6.6391634,15.887059 6.1746498,15.791299 5.5106074,15.573686 4.6559613,15.293611 3.8038325,14.837147 3.0636935,14.262936 2.7026321,13.982819 2.0577702,13.344441 1.7755339,12.987728 0.88794792,11.865926 0.3083243,10.529805 0.0917606,9.1063725 0.00896006,8.5621399 0.01011449,7.4427341 0.09405042,6.8860335 0.49349047,4.2367674 2.1177189,2.009911 4.5095989,0.83221018 c 1.7093167,-0.84162401 3.6992617,-1.03433826 5.5615021,-0.5385981 1.02738,0.27349501 2.070636,0.80650252 2.924743,1.49427392 0.414171,0.3335119 1.069222,1.0087737 1.377849,1.42036 0.791878,1.0560536 1.323043,2.3158705 1.522047,3.6099909 0.07492,0.4872033 0.09998,1.4099976 0.05201,1.9152542 -0.347533,3.6605709 -3.177639,6.6368999 -6.8162599,7.1684379 -0.3726583,0.05444 -1.4263291,0.09463 -1.7118644,0.0653 z M 8.560102,13.986115 c 2.419806,-0.244786 4.402736,-1.821133 5.1454,-4.0903815 C 14.886816,6.2861697 12.529998,2.5253008 8.7822962,2.0395761 6.4915532,1.7426821 4.2161328,2.7809585 2.9702721,4.6916084 1.6463158,6.722025 1.6624254,9.3386799 3.0113304,11.36061 c 1.2104174,1.814344 3.3869167,2.844196 5.5487716,2.625505 z"
     id="path3340"
     inkscape:connector-curvature="0" />
  <path
     style="fill:#f9f9f9"
     d="M 10.13149,10.976662 C 10.075558,10.942749 9.312594,10.537656 8.4360147,10.076455 6.7206945,9.1739616 6.3658343,8.9531284 6.20055,8.6853019 6.0367838,8.4199355 6.0480291,8.321865 6.5312452,5.8012877 6.7671442,4.5707792 6.9761646,3.4953555 6.9957351,3.4114572 7.0394267,3.2241515 7.232044,3.0280532 7.4308354,2.9684939 c 0.2787535,-0.083517 0.6457134,0.1255539 0.7135472,0.406534 0.01609,0.066646 0.2074903,1.1203276 0.4253348,2.341514 0.2178445,1.2211865 0.4066666,2.245778 0.4196048,2.2768699 0.018977,0.045603 1.1640698,1.31226 1.8029178,1.9943166 0.07858,0.083899 0.156554,0.1878576 0.173268,0.2310206 0.04231,0.109273 0.03797,0.368842 -0.0077,0.457649 -0.05624,0.109459 -0.20352,0.259912 -0.307734,0.314357 -0.129346,0.06757 -0.395888,0.06033 -0.518633,-0.01409 z"
     id="path3342"
     inkscape:connector-curvature="0" />
  <path
     style="fill:#f9f9f9"
     d="m 10.309592,11.060313 c -0.08921,-0.01704 -0.160799,-0.047 -0.244696,-0.102419 C 10.038529,10.940477 9.3387634,10.569005 8.5098604,10.132401 6.9724867,9.3226274 6.8542814,9.2581468 6.606841,9.0943121 6.4737083,9.0061625 6.3947455,8.9433552 6.3136347,8.8610948 6.0953738,8.6397403 6.027755,8.388733 6.0947549,8.0485925 c 0.00617,-0.03131 0.026822,-0.1399348 0.045899,-0.2413875 0.019077,-0.1014527 0.036667,-0.1876656 0.039089,-0.1915843 0.011438,-0.018508 0.00982,0.00825 -0.00664,0.1099614 -0.049008,0.3028287 -0.067399,0.4692222 -0.067493,0.6106471 -1.008e-4,0.1522734 0.016269,0.2194419 0.079632,0.3267537 0.095594,0.1618971 0.2261726,0.2763256 0.5448633,0.4774752 0.2894243,0.1826774 0.7159543,0.4164751 1.8726345,1.0264639 0.8661322,0.456765 1.3797988,0.729542 1.5011039,0.797144 0.07015,0.0391 0.115096,0.05453 0.193758,0.06654 0.07471,0.0114 0.19672,0.0083 0.261667,-0.0066 0.09107,-0.02093 0.174857,-0.0752 0.269715,-0.174695 0.09073,-0.09516 0.136566,-0.167821 0.152649,-0.241954 0.01491,-0.06873 0.01833,-0.223013 0.0066,-0.299401 C 10.97046,10.191588 10.929189,10.130547 10.708545,9.8942308 10.493234,9.663625 10.096184,9.2310889 9.8009411,8.90551 9.4680683,8.5384347 9.3833738,8.4434769 9.3862658,8.4405848 c 0.00168,-0.00168 0.313083,0.33617 0.6920062,0.7507784 0.378923,0.4146084 0.712121,0.7747968 0.74044,0.8004185 0.09604,0.086894 0.163135,0.1948863 0.190937,0.3073283 0.01853,0.07492 0.01859,0.187789 1.43e-4,0.262348 -0.04883,0.197384 -0.175569,0.357568 -0.351645,0.444429 -0.03625,0.01788 -0.08749,0.03819 -0.113856,0.04512 -0.0618,0.01624 -0.174913,0.02073 -0.234699,0.0093 l 0,0 z"
     id="path3346"
     inkscape:connector-curvature="0" />
  <path
     style="fill:#f9f9f9"
     d="M 7.8267234,14.01345 C 7.1008342,13.988019 6.4468244,13.852043 5.7833046,13.5886 5.5962228,13.514322 5.3711542,13.412952 5.3914177,13.412097 c 0.00364,-1.54e-4 0.038691,0.01487 0.077902,0.03338 0.2456043,0.11594 0.5706093,0.237364 0.8501538,0.317621 0.4194599,0.120428 0.8195699,0.190348 1.2885266,0.225173 0.1348127,0.01001 0.6501715,0.01008 0.7820121,1.01e-4 0.3126757,-0.02366 0.5710003,-0.05815 0.8179668,-0.109211 0.049437,-0.01022 0.099324,-0.01978 0.1108599,-0.02124 l 0.020974,-0.0027 -0.017977,0.006 c -0.00989,0.0033 -0.077302,0.01794 -0.1498107,0.03252 -0.2742414,0.05514 -0.5765416,0.09469 -0.8479289,0.110919 -0.1099167,0.0066 -0.4091522,0.01184 -0.4973717,0.0087 z"
     id="path3348"
     inkscape:connector-curvature="0" />
  <path
     style="fill:#f9f9f9"
     d="m 7.2694273,15.964141 c -1.3234209,-0.12636 -2.5521614,-0.55753 -3.6538844,-1.282162 -0.058937,-0.03876 -0.085392,-0.0596 -0.085392,-0.06727 0,-0.01285 -0.00312,-0.01436 0.066424,0.03211 0.2101264,0.140396 0.5027865,0.310911 0.7785086,0.45359 0.6743461,0.348956 1.4646065,0.618242 2.2264285,0.758667 0.1896312,0.03495 0.6639519,0.09875 0.8416958,0.113215 0.017566,0.0014 0.012344,0.0023 -0.014981,0.0026 -0.023071,2.24e-4 -0.09453,-0.0046 -0.1587994,-0.01075 z"
     id="path3350"
     inkscape:connector-curvature="0" />
  <path
     style="fill:#f9f9f9"
     d="m 7.6079997,15.988221 c -0.052733,-0.0029 -0.1066653,-0.0061 -0.1198487,-0.007 -0.013183,-9.77e-4 0.1014219,-0.0022 0.2546783,-0.0028 0.4524733,-0.0016 0.9811033,-0.02708 1.2913688,-0.06217 0.1195059,-0.01352 0.3394528,-0.04923 0.5003679,-0.08124 0.617159,-0.122786 1.224969,-0.321008 1.794733,-0.585305 0.05273,-0.02446 0.09686,-0.04192 0.09805,-0.03879 0.0038,0.01 -0.0065,0.01568 -0.128397,0.07136 -0.624212,0.285153 -1.29409,0.489952 -1.9771183,0.604456 -0.2687075,0.04505 -0.5104752,0.07318 -0.8269554,0.09622 -0.1146855,0.0083 -0.7605588,0.01219 -0.8868796,0.0053 z"
     id="path3352"
     inkscape:connector-curvature="0" />
  <path
     style="fill:#f9f9f9"
     d="m 11.425114,15.214041 c -0.0016,-0.0047 0.05811,-0.03839 0.162794,-0.09173 0.690898,-0.352045 1.304181,-0.783243 1.867084,-1.312744 0.899564,-0.846184 1.595945,-1.891362 2.025762,-3.040406 0.136994,-0.366233 0.266207,-0.8132163 0.339092,-1.1730184 0.009,-0.044275 0.01633,-0.067415 0.02144,-0.067415 0.01044,0 0.01065,-0.00184 -0.01281,0.109239 -0.310792,1.4712022 -1.021358,2.8114002 -2.067601,3.8996972 -0.578127,0.601364 -1.246356,1.109494 -1.983659,1.5084 -0.07494,0.04055 -0.341768,0.175473 -0.34701,0.175473 -0.0014,0 -0.0037,-0.0034 -0.0051,-0.0075 z"
     id="path3354"
     inkscape:connector-curvature="0" />
  <path
     style="fill:#f9f9f9"
     d="m 11.480586,12.900181 c 0,-0.0013 0.03977,-0.03154 0.08839,-0.0673 0.445167,-0.327491 0.863153,-0.738287 1.203535,-1.182834 0.16133,-0.210701 0.359999,-0.513832 0.472485,-0.720922 0.01576,-0.02902 0.03006,-0.05137 0.03176,-0.04966 0.0084,0.0084 -0.150683,0.276928 -0.277222,0.467967 -0.219176,0.330895 -0.449923,0.612529 -0.736634,0.899084 -0.242388,0.242255 -0.466655,0.434613 -0.711354,0.610139 -0.05901,0.04233 -0.07096,0.04966 -0.07096,0.04353 z"
     id="path3358"
     inkscape:connector-curvature="0" />
  <path
     style="fill:#f9f9f9"
     d="m 10.729369,13.35128 c 0.255786,-0.130997 0.491387,-0.272178 0.71254,-0.426982 0.01894,-0.01326 0.03623,-0.02299 0.03843,-0.02163 0.0051,0.0031 -0.01113,0.01479 -0.135362,0.09718 -0.143808,0.09538 -0.276163,0.175442 -0.429973,0.26011 -0.08294,0.04566 -0.2767,0.144311 -0.283259,0.144224 -0.003,-4e-5 0.0409,-0.02384 0.09763,-0.0529 z"
     id="path3360"
     inkscape:connector-curvature="0" />
  <path
     style="fill:#f9f9f9"
     d="m 13.266275,10.907179 c 0.0014,-0.0038 0.0037,-0.0098 0.0051,-0.01334 0.0018,-0.0044 0.0011,-0.0056 -0.002,-0.0037 -0.0025,0.0016 -0.0046,0.0017 -0.0046,2.8e-4 0,-0.0014 0.01561,-0.03182 0.03468,-0.06761 0.301501,-0.565697 0.51227,-1.1895375 0.617192,-1.8267882 0.0085,-0.051562 0.01667,-0.1038574 0.01817,-0.116211 0.0019,-0.015214 0.0045,-0.022461 0.0081,-0.022461 0.0078,0 0.0071,0.00822 -0.01004,0.1117278 -0.09645,0.5827741 -0.268013,1.1293493 -0.521598,1.6617093 -0.0604,0.126804 -0.15993,0.316282 -0.145169,0.276368 z"
     id="path3362"
     inkscape:connector-curvature="0" />
  <path
     style="fill:#f9f9f9"
     d="m 15.948365,7.3089177 c -0.0012,-0.013428 -0.0041,-0.049023 -0.0064,-0.079102 -0.01334,-0.1786743 -0.03203,-0.3372239 -0.0587,-0.4980469 C 15.722538,5.7625529 15.379399,4.8190092 14.874691,3.9583318 14.702552,3.6647841 14.471029,3.3239215 14.292308,3.1009099 14.108258,2.8712486 13.891867,2.6342309 13.596676,2.3389667 13.220606,1.9628045 12.998313,1.7717373 12.633606,1.5111832 12.563668,1.4612178 12.347054,1.3148855 12.279603,1.2720381 c -0.0063,-0.00399 -0.0047,-0.00469 0.01101,-0.00488 0.01675,-2.098e-4 0.02332,0.00303 0.07617,0.037535 0.718966,0.4694407 1.384158,1.079248 1.918283,1.7585638 0.945237,1.2021795 1.517844,2.6174424 1.672639,4.1341174 0.01452,0.1422782 0.01441,0.1359602 0.0024,0.1359602 -0.0088,0 -0.0096,-0.00182 -0.01172,-0.024414 z"
     id="path3364"
     inkscape:connector-curvature="0" />
  <path
     style="fill:#f9f9f9"
     d="m 13.987397,7.5748108 c -1.6e-5,-0.00161 -0.0035,-0.043581 -0.0078,-0.093266 C 13.92002,6.789203 13.751373,6.1414443 13.465626,5.507428 13.419092,5.4041781 13.310306,5.1876834 13.254665,5.087595 12.784314,4.2415215 12.128334,3.5298676 11.331173,3.0008557 11.199393,2.9134038 11.20861,2.91998 11.210477,2.9147373 c 8.58e-4,-0.00241 0.03572,0.017917 0.07773,0.04532 1.264823,0.8250374 2.174417,2.104972 2.542938,3.5782931 0.07808,0.3121575 0.130081,0.6248356 0.158113,0.950718 0.0071,0.082008 0.0072,0.088672 0.0021,0.088672 -0.0021,0 -0.0039,-0.00132 -0.0039,-0.00293 z"
     id="path3366"
     inkscape:connector-curvature="0" />
  <path
     style="fill:#f9f9f9"
     d="M 12.194614,1.2193804 C 11.876875,1.0218857 11.503361,0.82580033 11.151707,0.67188135 10.336396,0.31501859 9.4817284,0.10700071 8.5610045,0.04132882 c -0.045613,-0.0032534 -0.087361,-0.0059153 -0.092773,-0.0059153 -0.00789,0 -0.00984,-0.0019331 -0.00984,-0.0097656 0,-0.01196809 -0.00312,-0.01186055 0.1097597,-0.0037841 1.2058362,0.08627751 2.3573945,0.43884494 3.4097715,1.04395403 0.110419,0.06349 0.324219,0.194118 0.324219,0.198092 0,6.335e-4 -0.0066,0.00178 -0.01475,0.00256 -0.01316,0.00125 -0.02318,-0.00383 -0.09277,-0.047088 z"
     id="path3368"
     inkscape:connector-curvature="0" />
  <path
     style="fill:#f9f9f9"
     d="M 11.192765,2.91079 C 11.176179,2.8985811 11.010828,2.8003912 10.940812,2.7611731 10.190353,2.3408226 9.3537475,2.086953 8.4906164,2.0176565 c -0.017725,-0.00142 -0.032227,-0.00416 -0.032227,-0.00609 0,-0.00435 -0.010279,-0.00485 0.091106,0.00444 0.9343708,0.085611 1.807963,0.3733964 2.599355,0.8562999 0.03493,0.021314 0.06251,0.040365 0.06129,0.042336 -0.0031,0.00505 -0.0062,0.00436 -0.01738,-0.00385 z"
     id="path3370"
     inkscape:connector-curvature="0" />
  <path
     style="fill:#f9f9f9"
     d="m 3.9312578,1.1311302 c 0,-0.012875 0.00108,-0.013669 0.083008,-0.061004 C 4.259343,0.92852904 4.5432845,0.78486529 4.8062578,0.66940779 5.9215377,0.17974821 7.133297,-0.04414277 8.374593,0.01010353 c 0.07894,0.0034498 0.083032,0.0042462 0.083032,0.01615986 0,0.0098751 -3.789e-4,0.01000916 -0.021973,0.0077554 C 8.3298949,0.02298009 7.7911694,0.02113575 7.6168047,0.03121542 7.1120256,0.06039567 6.7083183,0.1151779 6.2574297,0.21567977 5.4669942,0.39186572 4.6916915,0.69722889 3.9947067,1.1068829 l -0.063449,0.037292 0,-0.013045 z"
     id="path3372"
     inkscape:connector-curvature="0" />
  <path
     style="fill:#f9f9f9"
     d="M 6.7375897,4.6887339 C 6.7388356,4.6828257 6.7883291,4.4257456 6.8475754,4.1174448 6.9278988,3.6994651 6.9561424,3.544976 6.9586241,3.5100229 6.9766472,3.2561816 7.1398026,3.0451522 7.380038,2.9649554 c 0.058924,-0.01967 0.1029271,-0.027397 0.1709849,-0.030023 0.1798373,-0.00694 0.3411478,0.058797 0.4682243,0.1908099 0.099163,0.103015 0.1597,0.24031 0.1679626,0.3809302 0.00145,0.024628 0.039739,0.245818 0.1062394,0.6136909 0.057187,0.3163513 0.1027999,0.5763611 0.1013615,0.5777995 -0.00144,0.00144 -0.00335,0.00188 -0.00424,9.878e-4 C 8.3896729,4.6982554 8.3649454,4.5648081 8.3356178,4.4026011 8.188033,3.5863285 8.149448,3.381062 8.1360647,3.341008 8.0843204,3.1861451 7.934922,3.0453281 7.7564634,2.9832107 7.6815083,2.9571206 7.6458139,2.9513936 7.5601641,2.9517154 c -0.068991,2.593e-4 -0.07967,0.00123 -0.1132813,0.010307 -0.1893883,0.05114 -0.380401,0.2280558 -0.4411728,0.4086142 -0.00457,0.013572 -0.014372,0.053469 -0.021787,0.08866 -0.014443,0.068547 -0.1450206,0.7356502 -0.2054709,1.0497229 -0.020156,0.1047215 -0.038105,0.1904149 -0.039887,0.1904296 -0.00178,1.57e-5 -0.00222,-0.00481 -9.749e-4,-0.010715 z"
     id="path3374"
     inkscape:connector-curvature="0" />
  <path
     style="fill:#f9f9f9"
     d="M 0.74526213,4.6372714 C 0.77628677,4.5698138 0.90320158,4.3164705 0.9444937,4.2395718 1.4713187,3.2584605 2.1969647,2.3951109 3.0723599,1.707907 3.2657865,1.5560629 3.4816316,1.4020434 3.6797817,1.2744719 3.7542392,1.2265352 3.9291136,1.118461 3.9303009,1.1196483 c 4.597e-4,4.597e-4 -3.997e-4,0.00688 -0.00191,0.014262 -0.00241,0.011771 -0.00706,0.016027 -0.037787,0.034533 C 3.5024301,1.4022606 3.116674,1.682616 2.7706326,1.9824025 1.9430408,2.6993713 1.2601598,3.5967604 0.79658747,4.576539 0.75027305,4.6744264 0.74757777,4.6790795 0.73651932,4.6802402 l -0.0115779,0.00122 0.0203208,-0.044184 z"
     id="path3376"
     inkscape:connector-curvature="0" />
  <path
     style="fill:#f9f9f9"
     d="M 2.4196675,5.7565263 C 2.4434283,5.6966236 2.4536732,5.671964 2.482571,5.6051175 3.0103763,4.3841945 3.896664,3.403776 5.0588162,2.7552545 5.1584471,2.699657 5.3616184,2.5950047 5.369705,2.5951176 5.3727396,2.59516 5.3260037,2.6203534 5.2658475,2.6511029 4.4791754,3.0532188 3.7936351,3.620314 3.2550995,4.3144415 2.9302635,4.7331279 2.6545617,5.207399 2.4551513,5.690538 c -0.018575,0.045004 -0.035845,0.082516 -0.038378,0.083361 -0.00292,9.747e-4 -0.00187,-0.00537 0.00289,-0.017372 z"
     id="path3380"
     inkscape:connector-curvature="0" />
  <path
     style="fill:#f9f9f9"
     d="m 5.3638218,2.5984321 c 0.00419,-0.00678 0.1394819,-0.069754 0.2614007,-0.121678 0.4747738,-0.2021997 0.9872633,-0.346756 1.4914252,-0.4206814 0.061679,-0.00904 0.061309,-0.00902 0.061309,-0.00463 0,0.0018 -0.021533,0.00628 -0.047852,0.00994 -0.5634851,0.078449 -1.1586157,0.2563267 -1.6862536,0.5040021 -0.043894,0.020604 -0.080473,0.037462 -0.081285,0.037462 -8.123e-4,0 -2.474e-4,-0.00199 0.00126,-0.00442 z"
     id="path3382"
     inkscape:connector-curvature="0" />
  <path
     style="fill:#f9f9f9"
     d="M 0.01260695,7.5882046 C 0.01639611,7.4992747 0.02922488,7.327259 0.04064692,7.2122281 0.12453634,6.367381 0.33910051,5.5528012 0.68193242,4.7776267 c 0.034904,-0.078921 0.0424694,-0.093162 0.0505715,-0.095196 0.00524,-0.00132 0.0103934,-0.00153 0.0114517,-4.669e-4 0.001058,0.00106 -0.0128938,0.035107 -0.031005,0.075664 C 0.4302198,5.3907601 0.2290211,6.0613807 0.11305694,6.75715 0.07815595,6.9665511 0.06276616,7.1043309 0.04848125,7.335275 0.04234557,7.4344704 0.03463621,7.5990257 0.03463621,7.6307955 c 0,0.018639 -1.9107e-4,0.018933 -0.01232534,0.018933 l -0.01232534,0 0.00262142,-0.061523 z"
     id="path3384"
     inkscape:connector-curvature="0" />
  <path
     style="fill:#f9f9f9"
     d="M 2.1620471,9.4358609 C 2.0779095,9.0918668 2.0271262,8.7674938 2.0016666,8.4114468 1.9809785,8.1221277 1.9839353,7.7641264 2.0094257,7.4719937 2.0614503,6.8757675 2.1987101,6.2999196 2.4214369,5.7434781 c 0.033364,-0.083354 0.078017,-0.1885036 0.087403,-0.2058168 0.013539,-0.024974 0.00472,9.462e-4 -0.017628,0.05182 -0.032358,0.073657 -0.07022,0.1666556 -0.068535,0.1683399 7.554e-4,7.554e-4 0.00627,-0.01014 0.012247,-0.024211 0.00598,-0.014072 0.011701,-0.024757 0.012712,-0.023746 0.00101,0.00101 -0.012245,0.037553 -0.029459,0.081203 -0.2301461,0.5835973 -0.3597091,1.1695308 -0.405809,1.8352238 -0.00877,0.1266448 -0.01004,0.5923255 -0.00195,0.7167969 0.025872,0.3982614 0.075189,0.7308317 0.1613238,1.0878906 0.010625,0.044043 0.020277,0.083154 0.021449,0.086914 0.00137,0.00439 6.47e-5,0.00684 -0.00364,0.00684 -0.00428,0 -0.011373,-0.022918 -0.027504,-0.088867 z"
     id="path3386"
     inkscape:connector-curvature="0" />
  <path
     style="fill:#f9f9f9"
     d="M 0.1443242,9.5042203 C 0.07367846,9.1548744 0.02296651,8.7040089 0.00691347,8.2825406 0.00216172,8.1577846 0.00395824,7.6693139 0.00921571,7.656564 0.011022,7.6521836 0.01627467,7.6497281 0.02383859,7.6497281 l 0.01180403,0 -0.0027162,0.038312 c -0.0042098,0.059379 -0.0030774,0.5749546 0.001546,0.7038759 0.01593805,0.4444294 0.04162274,0.6815862 0.11348929,1.0478912 0.008531,0.043484 0.015527,0.08038 0.0155461,0.081992 1.914e-5,0.00161 -0.003356,0.00293 -0.007501,0.00293 -0.00596,0 -0.008403,-0.00429 -0.0116827,-0.020508 z"
     id="path3388"
     inkscape:connector-curvature="0" />
  <path
     style="fill:#f9f9f9"
     d="M 1.6960742,12.912423 C 1.0567902,12.093839 0.58753043,11.171598 0.3042572,10.177072 0.25292532,9.9968539 0.19032008,9.7388998 0.15968061,9.5813687 c -0.004597,-0.023633 -0.009242,-0.046045 -0.0103235,-0.049805 -0.001428,-0.00496 2.7942e-4,-0.00684 0.006232,-0.00684 0.004509,0 0.008869,0.0022 0.009688,0.00488 8.1916e-4,0.00269 0.0123389,0.054981 0.0255994,0.1162109 0.1856668,0.8573182 0.527104,1.7162202 0.98465991,2.4769592 0.1649392,0.27423 0.3557101,0.553882 0.5360328,0.785773 0.036602,0.04707 0.04061,0.05367 0.032569,0.05367 -0.00711,0 -0.017912,-0.0112 -0.048064,-0.0498 z"
     id="path3390"
     inkscape:connector-curvature="0" />
  <path
     style="fill:#f9f9f9"
     d="M 4.3648889,12.789862 C 3.8823363,12.424728 3.4615859,11.992984 3.1129346,11.505197 3.043511,11.408068 2.9229563,11.225078 2.9262329,11.221801 c 0.00102,-0.001 0.022771,0.03025 0.048342,0.06949 0.3681525,0.564832 0.8548879,1.086906 1.3902672,1.491206 0.064419,0.04865 0.07183,0.05476 0.066267,0.05468 -0.00207,-3.1e-5 -0.031871,-0.02132 -0.06622,-0.04731 z"
     id="path3392"
     inkscape:connector-curvature="0" />
  <path
     style="fill:#f9f9f9"
     d="M 2.8877244,11.16633 C 2.589752,10.681117 2.3599672,10.152463 2.2066618,9.5994433 c -0.010943,-0.039473 -0.01894,-0.072725 -0.017771,-0.073893 0.00339,-0.00339 0.00387,-0.00198 0.021419,0.063631 0.144772,0.5412938 0.3893016,1.1026918 0.6903519,1.5849318 0.015749,0.02523 0.028635,0.04676 0.028635,0.04785 0,0.0088 -0.011168,-0.0061 -0.041571,-0.05563 z"
     id="path3394"
     inkscape:connector-curvature="0" />
  <path
     style="fill:#f9f9f9"
     d="m 3.5152332,14.616954 c -0.00967,-0.007 -0.047461,-0.03351 -0.083984,-0.05898 C 3.1437832,14.357536 2.8603727,14.129629 2.5835926,13.876323 2.4333645,13.738836 2.172334,13.472553 2.0206693,13.302072 c -0.090176,-0.101364 -0.2827798,-0.331101 -0.2827798,-0.3373 0,-0.0011 0.00299,-0.0025 0.00663,-0.0032 0.00454,-8.74e-4 0.019569,0.01478 0.047561,0.04952 0.1241958,0.154148 0.2842214,0.328433 0.5159252,0.561898 0.2846793,0.286844 0.5352801,0.51755 0.7298121,0.671874 0.1091996,0.08663 0.3467464,0.259571 0.4572838,0.332918 0.022231,0.01475 0.038491,0.02746 0.036133,0.02825 -0.00615,0.0021 -0.00529,0.0088 0.00218,0.01707 0.00983,0.01087 0.00143,0.008 -0.018184,-0.0061 z"
     id="path3396"
     inkscape:connector-curvature="0" />
  <path
     style="fill:#f9f9f9"
     d="M 5.2736469,13.359056 C 5.0384106,13.238697 4.8244339,13.112485 4.6177768,12.972195 4.5120734,12.900438 4.4300371,12.841119 4.4322299,12.838028 c 0.00282,-0.004 -1.583e-4,-0.0059 0.078287,0.05028 0.2446403,0.17516 0.5402494,0.35272 0.8013867,0.481358 0.074247,0.03657 0.089705,0.04581 0.076381,0.04561 -0.00269,-3.9e-5 -0.054273,-0.02534 -0.1146377,-0.05623 z"
     id="path3398"
     inkscape:connector-curvature="0" />
  <path
     style="fill:#f9f9f9"
     d="m 9.3086173,13.861155 c -0.00509,-0.002 0.00259,-0.005 0.025391,-0.0098 0.1705462,-0.03594 0.4448408,-0.114136 0.6469604,-0.184444 0.2243317,-0.07804 0.4813857,-0.185003 0.6619517,-0.275459 0.02956,-0.01481 0.05436,-0.02692 0.0551,-0.02692 7.44e-4,0 0.0014,0.0025 0.0014,0.0056 0,0.0087 -0.173285,0.09044 -0.348308,0.164216 -0.28289,0.119247 -0.5758919,0.216551 -0.8895052,0.295398 -0.060772,0.01528 -0.1169054,0.02804 -0.1247412,0.02837 -0.00784,3.23e-4 -0.013445,0.0019 -0.012465,0.0035 0.0022,0.0036 -0.00595,0.0034 -0.01574,-4.87e-4 z"
     id="path3400"
     inkscape:connector-curvature="0" />
  <path
     style="fill:#f9f9f9"
     d="m 15.834504,9.5231134 c 0.01115,-0.045058 0.05838,-0.3265763 0.07444,-0.4436978 0.05262,-0.3837123 0.0678,-0.645616 0.06341,-1.09375 -0.0023,-0.2389009 -0.0059,-0.3562485 -0.01638,-0.5410156 -0.0032,-0.055859 -0.0058,-0.1037598 -0.0058,-0.1064454 -3e-6,-0.00269 0.0043,-0.00488 0.0095,-0.00488 0.0117,0 0.01174,2.802e-4 0.01977,0.1210938 0.0118,0.1777079 0.01416,0.2448953 0.01636,0.4648437 0.0035,0.354274 -0.01067,0.6438989 -0.04791,0.9765625 -0.01947,0.1739168 -0.05855,0.4339213 -0.08867,0.5898438 -0.008,0.041643 -0.0093,0.044946 -0.01773,0.04526 -0.0073,2.723e-4 -0.0087,-0.00126 -0.007,-0.00781 z"
     id="path3402"
     inkscape:connector-curvature="0" />
  <path
     style="fill:#f9f9f9"
     d="m 13.942389,8.8526274 c 0,-0.00227 0.0044,-0.038747 0.0097,-0.081055 0.01927,-0.1531314 0.03188,-0.2940652 0.04184,-0.4675477 0.0095,-0.1647719 0.0049,-0.6337157 -0.0069,-0.7132162 -0.0016,-0.010602 -7.05e-4,-0.013997 0.0036,-0.013997 0.0043,0 0.0063,0.00764 0.0081,0.031575 0.01649,0.2174654 0.01491,0.5591123 -0.0038,0.8186849 -0.01152,0.1599606 -0.04246,0.4296875 -0.04928,0.4296875 -0.0018,0 -0.0032,-0.00186 -0.0032,-0.00413 z"
     id="path3404"
     inkscape:connector-curvature="0" />
</svg>
