<?xml version="1.0" encoding="UTF-8" standalone="no"?>
<svg
   xmlns:dc="http://purl.org/dc/elements/1.1/"
   xmlns:cc="http://creativecommons.org/ns#"
   xmlns:rdf="http://www.w3.org/1999/02/22-rdf-syntax-ns#"
   xmlns:svg="http://www.w3.org/2000/svg"
   xmlns="http://www.w3.org/2000/svg"
   xmlns:sodipodi="http://sodipodi.sourceforge.net/DTD/sodipodi-0.dtd"
   xmlns:inkscape="http://www.inkscape.org/namespaces/inkscape"
   height="16"
   width="16"
   version="1.1"
   id="svg2"
   inkscape:version="0.91 r13725"
   sodipodi:docname="share.svg">
  <metadata
     id="metadata12">
    <rdf:RDF>
      <cc:Work
         rdf:about="">
        <dc:format>image/svg+xml</dc:format>
        <dc:type
           rdf:resource="http://purl.org/dc/dcmitype/StillImage" />
      </cc:Work>
    </rdf:RDF>
  </metadata>
  <defs
     id="defs10" />
  <sodipodi:namedview
     pagecolor="#ffffff"
     bordercolor="#666666"
     borderopacity="1"
     objecttolerance="10"
     gridtolerance="10"
     guidetolerance="10"
     inkscape:pageopacity="0"
     inkscape:pageshadow="2"
     inkscape:window-width="958"
     inkscape:window-height="1180"
     id="namedview8"
     showgrid="false"
     inkscape:zoom="83.4386"
     inkscape:cx="4.1460356"
     inkscape:cy="8.7164863"
     inkscape:window-x="0"
     inkscape:window-y="18"
     inkscape:window-maximized="0"
     inkscape:current-layer="svg2" />
  <g
     transform="translate(0 -1036.4)"
     id="g4">
    <path
       d="m12.228 1037.4c-1.3565 0-2.4592 1.0977-2.4592 2.4542 0 0.075 0.0084 0.1504 0.0149 0.2236l-4.7346 2.4145c-0.4291-0.3667-0.98611-0.5863-1.5947-0.5863-1.3565 0-2.4542 1.0977-2.4542 2.4543 0 1.3565 1.0977 2.4542 2.4542 2.4542 0.54607 0 1.0528-0.1755 1.4606-0.477l4.8637 2.4741c-0.0024 0.044-0.0099 0.089-0.0099 0.1342 0 1.3565 1.1027 2.4542 2.4592 2.4542s2.4542-1.0977 2.4542-2.4542-1.0977-2.4592-2.4542-2.4592c-0.63653 0-1.218 0.2437-1.6544 0.6409l-4.6953-2.4c0.01892-0.1228 0.03478-0.2494 0.03478-0.3775 0-0.072-0.0089-0.1437-0.0149-0.2137l4.7395-2.4145c0.42802 0.3627 0.98488 0.5813 1.5898 0.5813 1.3565 0 2.4542-1.1027 2.4542-2.4592s-1.0977-2.4542-2.4542-2.4542z"
       id="path6" />
  </g>
  <path
     style="fill:#f9f9f9"
     d="M 11.827152,14.923608 C 11.338498,14.844419 10.82307,14.563101 10.464728,14.180004 10.071688,13.759813 9.8771932,13.333534 9.8338834,12.797369 L 9.8006902,12.386441 7.3746689,11.14966 4.9486473,9.9128793 4.4844932,10.132711 C 4.0739004,10.327175 3.9536503,10.35253 3.4424266,10.352436 2.9262771,10.352368 2.8161631,10.328527 2.4120971,10.129606 0.90787347,9.3890793 0.5777662,7.438186 1.7571286,6.2588235 2.5755241,5.440428 3.8256819,5.3197068 4.8119038,5.9638398 L 5.0610957,6.126595 7.4309671,4.9175348 9.8008386,3.7084746 9.8329837,3.2614159 C 9.8952793,2.395041 10.4073,1.6530892 11.210999,1.264582 c 0.349729,-0.1690586 0.482795,-0.1949633 1.013926,-0.1973862 0.556037,-0.00254 0.652013,0.017211 1.060501,0.2182065 0.522695,0.2571903 0.881131,0.6245419 1.132529,1.1606986 0.154084,0.3286147 0.178517,0.4695992 0.177651,1.0250855 -8.95e-4,0.5727256 -0.02201,0.6841713 -0.190682,1.0061162 -0.446173,0.8516345 -1.115702,1.3009207 -2.016329,1.3530573 -0.598116,0.034624 -1.048499,-0.077101 -1.490838,-0.3698264 L 10.636612,5.2877152 8.2579275,6.4980949 5.8792439,7.7084746 l 0.0197,0.338983 0.0197,0.3389831 2.2711864,1.1657857 c 1.2491526,0.6411826 2.3113575,1.1674536 2.3604555,1.1694916 0.0491,0.002 0.186387,-0.07002 0.305085,-0.160125 0.396062,-0.30066 0.779921,-0.412694 1.402256,-0.409267 0.491468,0.0027 0.635511,0.03175 0.978831,0.197387 0.510766,0.246414 0.947644,0.682118 1.179123,1.175948 0.156369,0.333593 0.181029,0.47394 0.181029,1.030271 0,0.567854 -0.02242,0.689717 -0.18944,1.029837 -0.463238,0.943323 -1.546927,1.505257 -2.580018,1.337839 z"
     id="path3340"
     inkscape:connector-curvature="0" />
  <path
     style="fill:#f9f9f9"
     d=""
     id="path3342"
     inkscape:connector-curvature="0" />
  <path
     style="fill:#f9f9f9"
     d="M 11.953866,14.97896 C 11.066273,14.879168 10.283552,14.28506 9.9546524,13.461498 9.835945,13.164256 9.7806362,12.888268 9.7793756,12.586876 L 9.7786138,12.404768 7.3549634,11.172662 C 6.0219556,10.495005 4.9311835,9.9365124 4.9310253,9.9315687 c -1.582e-4,-0.00494 0.00645,-0.0087 0.014693,-0.00836 0.00824,3.476e-4 1.1017083,0.555077 2.4299305,1.232733 l 2.4149494,1.2321 0.00836,0.07062 c 0.0046,0.03884 0.016972,0.170149 0.027494,0.291793 0.050881,0.58825 0.213217,0.963959 0.605207,1.400688 0.376692,0.419684 0.933156,0.716297 1.479406,0.78857 0.174336,0.02307 0.505593,0.01655 0.672002,-0.01322 0.703561,-0.125853 1.309233,-0.517475 1.687098,-1.090864 0.0929,-0.140971 0.216257,-0.391495 0.26008,-0.528192 0.058,-0.180932 0.06634,-0.278075 0.06571,-0.766173 -7.41e-4,-0.580227 -0.01815,-0.681796 -0.17253,-1.006728 -0.161665,-0.340261 -0.394364,-0.634675 -0.689699,-0.872619 -0.29491,-0.237601 -0.66423,-0.424147 -0.955142,-0.482448 -0.134275,-0.02691 -0.669881,-0.03777 -0.881528,-0.01787 -0.382984,0.03601 -0.656058,0.130572 -0.94283,0.326494 -0.179685,0.122762 -0.285726,0.189576 -0.300276,0.189199 -0.02073,-5.38e-4 0.06361,-0.06697 0.214289,-0.168788 0.813577,-0.5497775 1.887585,-0.5530716 2.708224,-0.0083 0.920673,0.611171 1.319056,1.758159 0.975993,2.809989 -0.295965,0.907427 -1.106308,1.562573 -2.065269,1.669729 -0.125786,0.01406 -0.404203,0.01355 -0.533326,-9.66e-4 l 0,-10e-7 z"
     id="path3344"
     inkscape:connector-curvature="0" />
  <path
     style="fill:#f9f9f9"
     d="M 9.6690929,10.295883 C 9.1269277,10.026141 5.9420151,8.3970619 5.9265098,8.3815566 c -0.00276,-0.00276 -0.00188,-0.00817 0.00196,-0.012011 0.00638,-0.00638 4.1109307,2.0833601 4.1371777,2.1063501 0.03551,0.03111 -0.05278,-0.009 -0.3965581,-0.180013 z"
     id="path3346"
     inkscape:connector-curvature="0" />
  <path
     style="fill:#f9f9f9"
     d=""
     id="path3348"
     inkscape:connector-curvature="0" />
  <path
     style="fill:#f9f9f9"
     d="m 5.8895265,7.7196751 c 0,-0.00532 1.0680769,-0.5531764 2.3735041,-1.2174557 l 2.3735044,-1.2077802 0.194252,0.1279492 c 0.468634,0.3086778 0.816934,0.4145133 1.362862,0.4141233 0.920509,-6.579e-4 1.575442,-0.3488072 2.064379,-1.0973839 0.174844,-0.2676911 0.292034,-0.5332434 0.319983,-0.7250841 0.03459,-0.2373973 0.0269,-0.9710652 -0.0122,-1.1645074 C 14.516123,2.6037177 14.334296,2.227835 14.14054,1.9703932 13.899693,1.6503827 13.608681,1.4284911 13.151134,1.2159881 12.854335,1.0781429 12.739115,1.060921 12.168099,1.0690553 c -0.474588,0.00676 -0.552043,0.017851 -0.783157,0.1121359 -0.518093,0.2113605 -0.936321,0.556441 -1.209363,0.9978462 -0.08351,0.1349959 -0.118704,0.2052708 -0.1832165,0.3657921 -0.1061696,0.2641737 -0.1463903,0.46616 -0.1780071,0.8939409 -0.010475,0.141721 -0.02281,0.2614585 -0.027412,0.2660832 C 9.763669,3.7282413 5.0715824,6.1125515 5.055318,6.1092555 5.044859,6.107136 6.1049147,5.56069 7.4109975,4.894931 L 9.7856934,3.68446 9.7779549,3.5406417 c -0.025617,-0.4760914 0.1201772,-0.999721 0.3954291,-1.420206 0.105122,-0.160588 0.199834,-0.2742102 0.349988,-0.4198675 0.198931,-0.1929725 0.368823,-0.314044 0.609531,-0.434375 0.316049,-0.1579944 0.59077,-0.2292874 1.00238,-0.2601282 0.643234,-0.0481957 1.332969,0.2194979 1.820506,0.7065577 0.368022,0.3676622 0.599221,0.8190376 0.690777,1.3486246 0.0291,0.1683198 0.02907,0.5990485 -6e-5,0.7670311 -0.121882,0.7029476 -0.501387,1.2863665 -1.087613,1.6720032 -0.848089,0.5578978 -1.988603,0.5204377 -2.8006,-0.091986 -0.05754,-0.043399 -0.110274,-0.081076 -0.117183,-0.083727 -0.0069,-0.00265 -1.0767709,0.5373401 -2.3774702,1.1999808 C 6.96294,7.1871899 5.8966604,7.7293505 5.8941291,7.7293505 c -0.00253,0 -0.0046,-0.00435 -0.0046,-0.00968 z"
     id="path3350"
     inkscape:connector-curvature="0" />
  <path
     style="fill:#f9f9f9"
     d="M 3.2807287,10.401649 C 2.7794572,10.369897 2.2816439,10.168131 1.8819309,9.834708 1.2048452,9.2699134 0.87918745,8.3522921 1.0512416,7.4940353 1.2294995,6.6048322 1.8642068,5.8944583 2.7196848,5.6266887 3.4726185,5.3910161 4.2824067,5.5264367 4.9120996,5.9933256 c 0.05324,0.039475 0.094283,0.07429 0.091206,0.077367 -0.00308,0.00308 -0.077762,-0.040595 -0.1659674,-0.097047 C 4.4085576,5.6992225 4.0054334,5.5683088 3.5384032,5.5518194 2.688906,5.5218262 1.9071372,5.929596 1.4316245,6.6507131 1.1898996,7.0172899 1.060365,7.4252287 1.0434526,7.8731689 1.0116022,8.7167556 1.415647,9.497399 2.130182,9.9728071 c 0.1429556,0.095114 0.4284389,0.2406749 0.5785731,0.2949999 0.1928974,0.0698 0.2455394,0.07647 0.653464,0.08287 0.6118681,0.0096 0.6861795,-0.0062 1.225594,-0.260345 0.1266618,-0.05968 0.2324991,-0.1063001 0.2351942,-0.1036052 0.0084,0.0084 -0.14164,0.098229 -0.2798899,0.1675642 -0.2004386,0.100523 -0.4604515,0.184615 -0.6881876,0.222569 -0.068512,0.01142 -0.413771,0.0396 -0.4303828,0.03513 -0.0033,-8.87e-4 -0.068014,-0.0055 -0.1438183,-0.01034 z"
     id="path3352"
     inkscape:connector-curvature="0" />
  <path
     style="fill:#f9f9f9"
     d="m 5.0005562,6.0920578 c -0.061032,-0.040689 -0.079614,-0.05883 -0.04924,-0.04807 0.019223,0.00681 0.020367,0.00526 0.00752,-0.010221 -0.0247,-0.029761 -0.00209,-0.020879 0.046741,0.018364 l 0.045563,0.036615 0.3549567,-0.1813081 c 0.1952263,-0.099719 0.3602073,-0.1780631 0.3666245,-0.1740971 0.00642,0.00397 0.1365595,-0.05528 0.2892052,-0.1316583 0.1526456,-0.076378 0.2799564,-0.1364507 0.2829125,-0.1334945 0.00619,0.00619 -1.2495942,0.6475065 -1.2777211,0.6525148 -0.010242,0.00182 -0.040195,-0.011067 -0.066562,-0.028645 z"
     id="path3354"
     inkscape:connector-curvature="0" />
  <path
     style="fill:#f9f9f9"
     d=""
     id="path3356"
     inkscape:connector-curvature="0" />
  <path
     style="fill:#f9f9f9"
     d=""
     id="path3358"
     inkscape:connector-curvature="0" />
  <path
     style="fill:#f9f9f9"
     d="m 6.6364897,5.3145349 c 0,-0.00965 0.1937396,-0.1040182 0.2002305,-0.097527 0.0033,0.0033 -0.037591,0.027906 -0.090861,0.054689 -0.09729,0.048917 -0.1093699,0.053648 -0.1093699,0.042838 z"
     id="path3360"
     inkscape:connector-curvature="0" />
  <path
     style="fill:#f9f9f9"
     d=""
     id="path3362"
     inkscape:connector-curvature="0" />
  <path
     style="fill:#f9f9f9"
     d="m 5.8892237,7.8793268 c -0.00782,-0.1510934 -0.00663,-0.1691161 0.012041,-0.1827691 0.011393,-0.00833 0.026425,-0.014864 0.033405,-0.014518 0.00698,3.458e-4 0.00119,0.00867 -0.012865,0.018503 -0.026864,0.018789 -0.027152,0.024111 -0.010977,0.2025887 0.00299,0.032958 0.0013,0.0788 -0.00375,0.1018713 -0.00671,0.030648 -0.011517,-0.00321 -0.017854,-0.1256755 z"
     id="path3364"
     inkscape:connector-curvature="0" />
</svg>
