<?xml version="1.0" encoding="UTF-8" standalone="no"?>
<svg
   xmlns:dc="http://purl.org/dc/elements/1.1/"
   xmlns:cc="http://creativecommons.org/ns#"
   xmlns:rdf="http://www.w3.org/1999/02/22-rdf-syntax-ns#"
   xmlns:svg="http://www.w3.org/2000/svg"
   xmlns="http://www.w3.org/2000/svg"
   xmlns:sodipodi="http://sodipodi.sourceforge.net/DTD/sodipodi-0.dtd"
   xmlns:inkscape="http://www.inkscape.org/namespaces/inkscape"
   height="22"
   width="22"
   version="1.1"
   id="svg2"
   inkscape:version="0.91 r13725"
   sodipodi:docname="star.svg">
  <metadata
     id="metadata12">
    <rdf:RDF>
      <cc:Work
         rdf:about="">
        <dc:format>image/svg+xml</dc:format>
        <dc:type
           rdf:resource="http://purl.org/dc/dcmitype/StillImage" />
      </cc:Work>
    </rdf:RDF>
  </metadata>
  <defs
     id="defs10" />
  <sodipodi:namedview
     pagecolor="#ffffff"
     bordercolor="#666666"
     borderopacity="1"
     objecttolerance="10"
     gridtolerance="10"
     guidetolerance="10"
     inkscape:pageopacity="0"
     inkscape:pageshadow="2"
     inkscape:window-width="958"
     inkscape:window-height="1180"
     id="namedview8"
     showgrid="false"
     inkscape:zoom="64"
     inkscape:cx="8.0986842"
     inkscape:cy="11.404265"
     inkscape:window-x="0"
     inkscape:window-y="18"
     inkscape:window-maximized="0"
     inkscape:current-layer="svg2" />
  <g
     transform="matrix(.068322 0 0 .068322 -10.114 -50.902)"
     id="g4">
    <path
       d="m330.36 858.43 43.111 108.06 117.64 9.2572-89.445 74.392 27.55 114.75-98.391-62.079-100.62 61.66 28.637-112.76-89.734-76.638 116.09-7.6094z"
       transform="translate(-21.071,-112.5)"
       id="path6" />
  </g>
  <path
     style="fill:#f9f9f9"
     d="M 14.350184,18.786905 11.053757,16.700077 7.6977399,18.758471 C 5.85193,19.890586 4.3267187,20.80186 4.3083816,20.783523 c -0.018337,-0.01834 0.3849025,-1.676126 0.8960882,-3.683975 0.5111857,-2.007849 0.9294285,-3.705906 0.9294285,-3.773459 0,-0.06755 -1.347374,-1.273396 -2.9941643,-2.67965 C 1.4929436,9.2401842 0.1820326,8.0797778 0.2265984,8.0677578 0.27116419,8.0557378 2.0275424,7.9347729 4.129661,7.798947 6.2317797,7.663121 7.9576085,7.5454411 7.9648362,7.537436 c 0.00723,-0.008 0.6963429,-1.6640448 1.5313669,-3.6800885 l 1.5182259,-3.66553375 1.451684,3.63420405 1.451684,3.6342039 0.466101,0.051368 c 0.256356,0.028253 1.913348,0.1595818 3.682204,0.2918424 1.768856,0.1322606 3.336574,0.2700937 3.483819,0.3062961 0.255264,0.06276 0.13199,0.178554 -2.650336,2.4894873 -1.60493,1.333016 -2.951414,2.446497 -2.992189,2.474402 -0.04077,0.02791 0.343232,1.787399 0.853346,3.909985 0.510115,2.122586 0.918118,3.866196 0.906674,3.874688 -0.01144,0.0085 -1.504198,-0.92363 -3.317232,-2.071386 z"
     id="path3340"
     inkscape:connector-curvature="0" />
  <path
     style="fill:#f9f9f9"
     d="m 16.749819,16.932126 c 0,-9.61e-4 -0.02803,-0.119255 -0.06229,-0.262876 -0.188777,-0.791387 -0.37826,-1.611712 -0.510024,-2.208034 -0.08939,-0.404534 -0.15509,-0.713616 -0.153426,-0.72174 6.22e-4,-0.003 0.173003,0.710504 0.38307,1.585648 0.210067,0.875143 0.382977,1.595125 0.384245,1.599959 0.0022,0.0083 0.0012,0.0088 -0.01964,0.0088 -0.01207,0 -0.02194,-7.86e-4 -0.02194,-0.0017 z"
     id="path3342"
     inkscape:connector-curvature="0" />
  <path
     style="fill:#f9f9f9"
     d="m 15.908563,13.122271 c -0.0052,-0.03125 -0.0032,-0.04418 0.0082,-0.05307 0.07718,-0.06013 1.238626,-1.019972 2.311351,-1.910147 l 0.35139,-0.291593 0.0311,0 c 0.0171,0 0.03036,6.51e-4 0.02947,0.0014 -0.01105,0.0098 -2.722055,2.263546 -2.725033,2.265387 -0.0025,0.0015 -0.0051,-0.0033 -0.0065,-0.01203 z"
     id="path3344"
     inkscape:connector-curvature="0" />
  <path
     style="fill:#f9f9f9"
     d="M 18.486147,7.8339919 C 18.395912,7.8268627 18.098842,7.804181 17.825991,7.7835881 16.33751,7.671248 15.150013,7.577816 14.599428,7.5297228 c -0.13703,-0.01197 -0.649775,-0.0658 -0.672499,-0.070602 -0.0072,-0.00152 -0.03741,-0.074415 -0.208109,-0.502364 l -0.199672,-0.5005811 0.0011,-0.056655 0.0011,-0.056655 0.219838,0.5509924 0.219837,0.5509923 0.02235,0.00238 c 0.01229,0.00131 0.179674,0.014704 0.371959,0.029763 0.453769,0.035538 0.27453,0.021462 2.410157,0.1892697 1.02373,0.08044 1.870556,0.147318 1.881836,0.1486179 l 0.02051,0.00236 0,0.015344 c 0,0.013453 -0.0011,0.015283 -0.0088,0.014854 -0.0048,-2.695e-4 -0.08262,-0.00632 -0.172851,-0.013452 z"
     id="path3346"
     inkscape:connector-curvature="0" />
  <path
     style="fill:#f9f9f9"
     d="m 18.621322,10.854586 c 0.0032,-0.0094 0.442364,-0.381174 0.975911,-0.826069 1.525616,-1.2721258 1.943801,-1.6424554 2.022748,-1.7912721 0.04509,-0.085004 0.0318,-0.1084949 -0.07564,-0.1336214 -0.112957,-0.026418 -0.725178,-0.08479 -1.823444,-0.1738569 -0.977389,-0.079263 -1.05084,-0.086393 -1.036612,-0.1006207 0.0038,-0.00381 0.625322,0.041856 1.381142,0.1014762 0.755821,0.05962 1.483204,0.1166535 1.616407,0.1267415 0.133203,0.010088 0.251297,0.023056 0.26243,0.028817 0.01289,0.00667 -0.579315,0.5092375 -1.631409,1.3844561 -0.908409,0.7556892 -1.661936,1.3800862 -1.674505,1.3875492 -0.0148,0.0088 -0.0208,0.0075 -0.01703,-0.0036 z"
     id="path3348"
     inkscape:connector-curvature="0" />
  <path
     style="fill:#f9f9f9"
     d="m 14.408398,18.874284 c -1.830469,-1.156095 -3.335697,-2.105339 -3.34495,-2.109431 -0.0093,-0.0041 -0.294019,0.162445 -0.632813,0.370081 -0.338793,0.207636 -0.6247765,0.380939 -0.6355187,0.385117 -0.010742,0.0042 -0.019431,-0.0019 -0.019309,-0.01361 2.085e-4,-0.01984 1.2469533,-0.79464 1.2786773,-0.79464 0.008,0 0.593682,0.366568 1.301445,0.814595 4.072813,2.578168 5.287333,3.338561 5.3047,3.321193 0.01381,-0.01382 -0.261249,-1.201824 -0.8083,-3.491062 -0.0868,-0.363247 -0.10153,-0.455969 -0.06692,-0.421361 0.0073,0.0073 0.908141,3.731103 0.96752,3.999291 0.0052,0.02363 0.0037,0.04271 -0.0034,0.04239 -0.0071,-3.17e-4 -1.510617,-0.946473 -3.341085,-2.102569 z"
     id="path3350"
     inkscape:connector-curvature="0" />
  <path
     style="fill:#f9f9f9"
     d="m 4.1921787,20.925211 c 0.00432,-0.01192 0.4114921,-1.612462 0.9048336,-3.556771 0.4933414,-1.944309 0.8990332,-3.525749 0.9015372,-3.51431 0.00586,0.02676 -0.2459675,1.047286 -0.7756048,3.143168 -0.4363141,1.726582 -0.7359395,2.938535 -0.8440431,3.414062 -0.086999,0.382694 -0.085694,0.375 -0.063624,0.375 0.058433,0 1.7172011,-0.996303 4.4197774,-2.654643 0.5622694,-0.345017 1.0273767,-0.621873 1.0335719,-0.615236 0.00912,0.0098 -5.5086759,3.403772 -5.5671444,3.424355 -0.00943,0.0033 -0.013621,-0.0037 -0.0093,-0.01563 z"
     id="path3352"
     inkscape:connector-curvature="0" />
  <path
     style="fill:#f9f9f9"
     d="M 2.3157631,9.9999347 0.0281545,8.0441727 0.12826311,8.0323692 C 0.18332284,8.0258772 1.9615325,7.9075009 4.0798402,7.7693106 6.1981478,7.6311203 7.9352519,7.511675 7.9400716,7.5038767 c 0.00482,-0.0078 0.69744,-1.6770794 1.5391565,-3.7095137 0.8417169,-2.0324342 1.5339089,-3.6953202 1.5382059,-3.6953021 0.01671,7.038e-5 2.501323,6.2561033 2.496892,6.2869477 -0.0026,0.018012 -0.563057,-1.3663769 -1.245489,-3.0764188 -0.682432,-1.7100419 -1.243174,-3.11209682 -1.246094,-3.11567755 -0.0029,-0.003581 -0.0089,-0.002899 -0.01333,0.001515 -0.0044,0.004414 -0.173706,0.40812485 -0.376205,0.89713538 -1.8710629,4.5183913 -2.660769,6.4166381 -2.6753385,6.430813 -0.016806,0.016351 -0.5696646,0.054737 -4.5810563,0.3180734 -1.7982447,0.1180494 -3.11053514,0.209602 -3.13768776,0.2189023 -0.0162756,0.00557 -0.0154359,0.014252 0.004075,0.042107 0.0729682,0.1041766 1.11838802,1.0271734 2.77423822,2.4493634 1.0974163,0.942558 1.609375,1.387614 1.609375,1.399063 0,0.004 -0.00527,0.0068 -0.011719,0.0061 -0.00645,-6.99e-4 -1.0411427,-0.881362 -2.2993274,-1.9570313 z"
     id="path3354"
     inkscape:connector-curvature="0" />
</svg>
